<?xml version="1.0" encoding="UTF-8"?>
<svg width="22px" height="16px" viewBox="0 0 22 16" version="1.1" xmlns="http://www.w3.org/2000/svg" xmlns:xlink="http://www.w3.org/1999/xlink">
    <!-- Generator: Sketch 55 (78076) - https://sketchapp.com -->
    <title>Button</title>
    <desc>Created with Sketch.</desc>
    <g id="Home" stroke="none" stroke-width="1" fill="none" fill-rule="evenodd">
        <g id="AL_Home" transform="translate(-449.000000, -3610.000000)" fill="#ED3D4A">
            <g id="Features" transform="translate(150.000000, 1077.000000)">
                <g id="Icons" transform="translate(0.000000, 538.000000)">
                    <g id="7" transform="translate(0.000000, 1420.000000)">
                        <g id="Button" transform="translate(184.000000, 563.000000)">
                            <g id="Laser" transform="translate(126.355717, 19.973405) rotate(-135.000000) translate(-126.355717, -19.973405) translate(117.855717, 11.473405)">
                                <path d="M16.2954963,0.703601145 C16.1416614,0.549683253 15.9329668,0.463206098 15.7153527,0.463206098 C15.4977386,0.463206098 15.289044,0.549683253 15.1352091,0.703601145 L4.09673846,11.7427692 C3.164707,11.3127958 2.06478713,11.4936894 1.31954872,12.1995077 C0.422940044,13.0777573 0.330672809,14.4899498 1.10538402,15.477397 C1.88009523,16.4648443 3.27367306,16.7113028 4.34006617,16.0494605 C5.40645927,15.3876182 5.80414072,14.0294391 5.26313846,12.8969436 L16.2954963,1.86388832 C16.4494142,1.71005347 16.5358913,1.50135879 16.5358913,1.28374473 C16.5358913,1.06613068 16.4494142,0.857435996 16.2954963,0.703601145 Z" id="Path"></path>
                                <path d="M3.05997949,8.19618462 C3.27763306,8.19631533 3.48640966,8.10991066 3.64031401,7.95600632 C3.79421835,7.80210197 3.88062302,7.59332537 3.88049231,7.37567179 L3.88049231,4.09362051 C3.88049231,3.6404638 3.5131362,3.27310769 3.05997949,3.27310769 C2.60682277,3.27310769 2.23946667,3.6404638 2.23946667,4.09362051 L2.23946667,7.37567179 C2.23934686,7.59332203 2.32575502,7.80209229 2.47965701,7.95599428 C2.63355899,8.10989626 2.84232925,8.19630442 3.05997949,8.19618462 Z" id="Path"></path>
                                <path d="M12.9063796,13.1193846 L9.62432822,13.1193846 C9.17117149,13.1193846 8.80381538,13.4867407 8.80381538,13.9398974 C8.80381538,14.3930542 9.17117149,14.7604103 9.62432822,14.7604103 L12.9063796,14.7604103 C13.3595363,14.7604103 13.7268924,14.3930542 13.7268924,13.9398974 C13.7268924,13.4867407 13.3595363,13.1193846 12.9063796,13.1193846 Z" id="Path"></path>
                            </g>
                        </g>
                    </g>
                </g>
            </g>
        </g>
    </g>
</svg>