<svg height="68" viewBox="0 0 224 68" width="224" xmlns="http://www.w3.org/2000/svg"><g fill-rule="evenodd"><path d="M12.221 13.646c.1-.62.16-1.625.179-3.015h.629c.031.945.083 1.502.155 1.673.072.171.246.354.521.548.276.194.646.367 1.11.52.463.15.911.227 1.344.227.632 0 1.216-.15 1.748-.452s.921-.697 1.165-1.185c.244-.49.368-1.013.368-1.57 0-.427-.061-.795-.184-1.105a1.703 1.703 0 0 0-.558-.751c-.25-.19-.56-.325-.93-.403-.23-.038-.693-.105-1.387-.198s-1.286-.194-1.774-.303c-.652-.207-1.13-.448-1.437-.727-.307-.277-.556-.641-.747-1.094a3.726 3.726 0 0 1-.286-1.461c0-.762.192-1.48.577-2.155.385-.674.955-1.198 1.709-1.572A5.434 5.434 0 0 1 16.877.06a7.77 7.77 0 0 1 1.74.218 7.64 7.64 0 0 1 1.76.637c-.087.407-.15.786-.187 1.138a21.8 21.8 0 0 0-.085 1.556h-.628c-.019-.996-.047-1.539-.085-1.63a2.434 2.434 0 0 0-.64-.63 3.966 3.966 0 0 0-2.02-.562c-.91 0-1.635.286-2.177.856-.542.57-.813 1.31-.813 2.218 0 .55.097.975.29 1.275.195.301.543.541 1.044.723.344.123.907.238 1.69.347.781.108 1.485.224 2.11.347.588.18 1.023.396 1.305.645.281.249.513.576.694.98.181.405.273.878.273 1.422 0 1.287-.517 2.41-1.55 3.366-1.032.958-2.368 1.437-4.007 1.437-1.239 0-2.362-.252-3.37-.758m10.231.478v-.621c.657-.006 1.09-.058 1.295-.155a.36.36 0 0 0 .188-.184c.063-.129.106-.468.131-1.017.038-.851.057-1.588.057-2.208V4.991c0-.878-.01-1.737-.028-2.577-.02-.612-.065-.975-.137-1.088a.646.646 0 0 0-.347-.253c-.16-.054-.611-.088-1.356-.1V.351L24.93.41l2.835-.05c1.357-.02 2.343-.029 2.956-.029.62 0 1.205.035 1.755.106-.1.37-.169.69-.207.96-.012.059-.069.732-.169 2.018h-.59c.005-.66-.035-1.26-.123-1.804a4.159 4.159 0 0 0-1.136-.3 16.294 16.294 0 0 0-2.102-.136c-.15 0-.485.014-1.004.04s-.892.047-1.117.066c-.025.715-.044 1.385-.056 2.01l-.038 3.266c.732.045 1.405.068 2.018.068.745 0 1.38-.035 1.905-.107.2-.025.33-.078.385-.155.057-.078.107-.342.15-.795l.057-.679h.563v.184l-.047 2.017.047 2.26h-.657l-.029-.659c-.012-.48-.054-.776-.126-.893-.072-.116-.208-.197-.409-.242-.356-.077-1.048-.116-2.074-.116-.42 0-1.013.016-1.783.048a63.727 63.727 0 0 0-.047 2.88c0 1.196.015 2.105.047 2.725.9.072 1.908.107 3.027.107.794 0 1.359-.025 1.696-.077.338-.053.65-.14.938-.262.075-.2.149-.472.224-.815.138-.575.229-1.008.272-1.3h.629c-.163 1.306-.244 2.389-.244 3.248-.538.085-1.192.128-1.961.128l-5.604-.068c-.081 0-.9.023-2.46.068m14.977-5.44h4.73l-2.336-5.837zm-4.374 5.44v-.66c.496-.005.804-.027.927-.062a.806.806 0 0 0 .338-.204c.103-.1.252-.36.446-.78.113-.239.52-1.147 1.222-2.726l2.35-5.469c.256-.601.805-1.94 1.644-4.015h.601l4.014 9.727c.651 1.578 1.083 2.567 1.296 2.968.12.226.25.375.391.446.14.071.459.11.954.116v.66a36.308 36.308 0 0 0-2.05-.098l-3.024.098v-.66c.7-.013 1.126-.035 1.276-.068.15-.032.252-.079.305-.14a.336.336 0 0 0 .08-.228c0-.143-.044-.327-.132-.553L42.54 9.506h-5.436L36.084 12c-.181.446-.272.773-.272.98 0 .09.025.164.075.222a.55.55 0 0 0 .32.174c.232.053.638.082 1.22.088v.66a47.033 47.033 0 0 0-2.377-.088c-.609 0-1.274.03-1.996.088zm23.358-12.82h-4.616c-.063.62-.094 1.457-.094 2.51V9.48c0 .88.01 1.735.028 2.57.02.612.065.977.137 1.093a.629.629 0 0 0 .347.257c.16.055.611.089 1.356.102v.62a59.617 59.617 0 0 0-2.525-.077c-.243 0-1.22.026-2.928.078v-.62c.74-.014 1.192-.048 1.353-.103.163-.055.272-.13.327-.227.082-.13.132-.443.15-.94 0-.136.015-1.054.047-2.753V3.831c0-.271-.006-.568-.019-.891l-.056-1.638H48.52c-.808 0-1.449.032-1.925.097-.15.02-.247.061-.29.126-.07.11-.132.463-.188 1.057l-.103.98h-.583c-.006-1.545-.037-2.615-.093-3.21.682.025 1.752.057 3.21.097 1.182.025 1.97.038 2.365.038.426 0 4.752-.026 4.752-.026"/><path d="M55.666.461s4.497.026 4.891.026c.426 0 1.41-.019 2.957-.058 1.12-.026 1.936-.052 2.45-.078-.076.725-.126 1.795-.15 3.21h-.601l-.075-.93c-.051-.563-.085-.883-.104-.96a.342.342 0 0 0-.08-.165.375.375 0 0 0-.154-.078c-.089-.02-.401-.045-.94-.078a22.888 22.888 0 0 0-1.276-.048H61.44c-.063.62-.095 1.457-.095 2.51V9.48c0 .879.01 1.735.029 2.569.018.614.064.978.136 1.095a.624.624 0 0 0 .347.256c.16.055.612.09 1.356.102v.62a59.64 59.64 0 0 0-2.525-.077c-.243 0-1.22.026-2.928.077v-.62c.741-.013 1.192-.047 1.354-.102s.27-.131.327-.227c.081-.13.131-.443.15-.94 0-.136.015-1.053.046-2.753V3.83c0-.27-.006-.568-.018-.89l-.057-1.638h-4.868M67.55 14.123v-.505c.384-.187.629-.336.734-.445a.469.469 0 0 0 .13-.224c.055-.18.093-.568.112-1.162.03-.885.047-1.412.047-1.58V4.994c0-.879-.01-1.738-.029-2.578-.018-.613-.064-.977-.136-1.09a.642.642 0 0 0-.347-.252c-.16-.055-.612-.09-1.356-.102v-.62c1.526.045 2.471.068 2.834.068.4 0 1.298-.023 2.694-.068v.62c-.745.013-1.196.047-1.356.102-.16.055-.27.13-.334.228-.075.129-.122.442-.14.94-.008.128-.023 1.046-.047 2.752v6.512c0 .678.015 1.23.047 1.656.713.045 1.42.068 2.121.068 1.765 0 3-.116 3.707-.348a4.56 4.56 0 0 0 .216-.67l.376-1.61h.629a83.633 83.633 0 0 0-.404 3.395 5.63 5.63 0 0 1-.61.096c-.325.02-.826.03-1.502.03l-5.556-.068c-.6 0-1.211.023-1.83.068"/><path d="M77.421 14.123v-.621c.657-.006 1.09-.058 1.296-.155.088-.04.15-.1.187-.184.063-.129.107-.468.132-1.017.037-.851.056-1.588.056-2.208V4.991c0-.878-.01-1.737-.028-2.577-.02-.612-.064-.975-.136-1.088a.646.646 0 0 0-.347-.253c-.16-.054-.612-.088-1.357-.1V.351l2.675.058L82.734.36C84.09.341 85.077.332 85.69.332c.62 0 1.204.035 1.755.106-.1.37-.169.69-.206.96-.012.059-.07.732-.17 2.018h-.59c.006-.66-.035-1.26-.122-1.804a4.159 4.159 0 0 0-1.136-.3 16.294 16.294 0 0 0-2.103-.136c-.15 0-.484.014-1.004.04-.519.025-.892.047-1.117.066-.025.715-.044 1.385-.056 2.01l-.038 3.266c.733.045 1.405.068 2.019.068.744 0 1.38-.035 1.905-.107.2-.025.329-.078.384-.155.057-.078.107-.342.15-.795l.057-.679h.564v.184l-.048 2.017.048 2.26h-.658l-.028-.659c-.013-.48-.055-.776-.126-.893-.073-.116-.209-.197-.41-.242-.355-.077-1.047-.116-2.073-.116-.42 0-1.014.016-1.784.048a64.854 64.854 0 0 0-.046 2.88c0 1.196.015 2.105.046 2.725.9.072 1.91.107 3.028.107.793 0 1.358-.025 1.696-.077.337-.053.65-.14.937-.262.074-.2.15-.472.225-.815a17.29 17.29 0 0 0 .272-1.3h.629c-.163 1.306-.245 2.389-.245 3.248a12.81 12.81 0 0 1-1.96.128l-5.605-.068c-.081 0-.9.023-2.459.068m18.542-.477c.1-.62.16-1.625.179-3.015h.629c.031.945.083 1.502.155 1.673.072.171.246.354.522.548.275.194.645.367 1.109.52.463.15.911.227 1.344.227a3.49 3.49 0 0 0 1.748-.452c.533-.301.921-.697 1.165-1.185.244-.49.367-1.013.367-1.57 0-.427-.06-.795-.183-1.105a1.708 1.708 0 0 0-.558-.751c-.25-.19-.56-.325-.93-.403a55.784 55.784 0 0 0-1.388-.198 20.928 20.928 0 0 1-1.774-.303c-.65-.207-1.13-.448-1.436-.727-.307-.277-.555-.641-.747-1.094a3.715 3.715 0 0 1-.286-1.461c0-.762.193-1.48.577-2.155.385-.674.954-1.198 1.709-1.572a5.432 5.432 0 0 1 2.454-.562c.531 0 1.112.073 1.74.218a7.64 7.64 0 0 1 1.76.637c-.087.407-.15.786-.187 1.138-.038.352-.066.87-.084 1.556h-.63c-.018-.996-.046-1.539-.084-1.63a2.434 2.434 0 0 0-.64-.63 3.966 3.966 0 0 0-2.02-.562c-.91 0-1.635.286-2.177.856-.542.57-.813 1.31-.813 2.218 0 .55.097.975.29 1.275.195.301.543.541 1.044.723.344.123.907.238 1.689.347.782.108 1.486.224 2.111.347.588.18 1.023.396 1.305.645.281.249.513.576.694.98.181.405.273.878.273 1.422 0 1.287-.517 2.41-1.549 3.366-1.033.958-2.369 1.437-4.008 1.437-1.239 0-2.362-.252-3.37-.758m9.852-10.084h-.582c-.006-1.546-.037-2.615-.093-3.21.681.025 1.752.057 3.21.097 1.182.025 1.97.038 2.364.038.426 0 1.412-.02 2.957-.058a96.791 96.791 0 0 0 2.45-.078c-.076.725-.125 1.794-.15 3.21h-.6l-.076-.93c-.05-.564-.084-.883-.103-.96a.34.34 0 0 0-.08-.166.365.365 0 0 0-.154-.077c-.088-.02-.4-.045-.94-.078a22.888 22.888 0 0 0-1.276-.048h-1.145c-.063.62-.093 1.457-.093 2.51V9.48c0 .88.009 1.735.027 2.568.02.614.064.979.136 1.095a.628.628 0 0 0 .348.257c.159.055.611.089 1.357.102v.62a59.69 59.69 0 0 0-2.526-.077c-.244 0-1.22.026-2.928.078v-.62c.74-.014 1.192-.048 1.354-.103.162-.055.27-.13.327-.227.08-.13.13-.443.149-.941 0-.135.016-1.053.047-2.752V3.831c0-.271-.006-.568-.019-.891l-.056-1.638h-1.399c-.807 0-1.448.032-1.924.097-.15.019-.247.061-.29.126-.07.11-.132.463-.188 1.057zm10.982-2.59v-.62c1.02.045 1.967.068 2.843.068.89 0 1.772-.023 2.647-.068v.62c-.734.013-1.183.047-1.345.102-.16.055-.27.13-.327.228-.08.129-.13.442-.148.94-.009.128-.024 1.046-.047 2.752v3.585c0 1.389.087 2.305.258 2.747.172.443.445.81.82 1.1.29.22.676.396 1.165.528a6.238 6.238 0 0 0 1.633.198c.701 0 1.323-.088 1.869-.265.543-.179.952-.395 1.224-.65a2.54 2.54 0 0 0 .61-.858c.133-.316.232-.75.29-1.303.06-.553.09-1.252.09-2.098V4.994c0-.879-.016-1.738-.047-2.579-.013-.613-.053-.976-.127-1.09a.636.636 0 0 0-.35-.251c-.162-.055-.609-.089-1.344-.102v-.62c1.03.045 1.783.068 2.257.068.431 0 .741-.005 1.865-.05l.468.602c-.741.013-1.191.047-1.35.102-.159.055-.269.13-.332.228-.074.129-.12.442-.14.94a286.47 286.47 0 0 0-.037 2.752V8.24c0 1.596-.107 2.71-.324 3.344-.216.633-.612 1.192-1.188 1.676-.43.362-.985.644-1.664.843-.679.2-1.433.3-2.258.3-.963 0-1.8-.117-2.506-.353-.708-.236-1.245-.546-1.615-.93-.368-.385-.622-.777-.76-1.178-.175-.53-.262-1.417-.262-2.664V4.994c0-.879-.01-1.738-.029-2.578-.017-.613-.064-.977-.136-1.09a.641.641 0 0 0-.347-.252c-.16-.055-.611-.089-1.356-.102"/><path d="M133.886 13.065c.69.124 1.414.185 2.177.185.79 0 1.484-.071 2.089-.214.604-.141 1.12-.342 1.549-.6.428-.259.843-.64 1.243-1.144.4-.503.709-1.149.925-1.933a9.185 9.185 0 0 0 .323-2.437c0-1.201-.207-2.233-.623-3.096a4.376 4.376 0 0 0-1.883-1.981c-.838-.46-1.989-.689-3.454-.689-.77 0-1.552.062-2.346.185a46.13 46.13 0 0 0-.047 1.686l-.037 1.405v3.865l.027 3.005c.007.459.026 1.047.057 1.763m-2.9 1.057v-.465c.359-.213.66-.407.9-.581.039-.44.07-1.05.095-1.83a97.73 97.73 0 0 0 .065-2.77v-3.95c0-.633-.015-1.375-.047-2.227-.024-.536-.068-.868-.132-.997a.387.387 0 0 0-.198-.184c-.208-.09-.639-.14-1.293-.146l.256-.602c.913.032 1.465.03 2.165.03.539 0 1.272-.011 2.201-.034.93-.023 1.65-.034 2.164-.034 1.533 0 2.765.202 3.698.607.933.403 1.724 1.08 2.374 2.029.652.95.977 2.11.977 3.48 0 .982-.154 1.902-.46 2.76a7.483 7.483 0 0 1-1.248 2.255c-.524.642-1.087 1.15-1.687 1.526a7.502 7.502 0 0 1-1.89.848c-.66.19-1.566.285-2.715.285-.382 0-.899-.01-1.548-.033a78.514 78.514 0 0 0-1.67-.035c-.38 0-1.05.023-2.007.068m12.37-12.917V.614l2.261-.456c.25.09.423.176.518.256.093.081.29.328.59.741.444.613.957 1.45 1.54 2.509a77.124 77.124 0 0 1 1.858 3.632 80.44 80.44 0 0 0 2.04-3.428l2-3.516h1.432v.262c-.345.394-.977 1.25-1.897 2.566-.532.763-1.223 1.87-2.074 3.323-.532.898-.832 1.448-.901 1.651a1.817 1.817 0 0 0-.103.577v.746c0 .88.01 1.736.028 2.57.019.615.065.98.136 1.096.073.116.188.202.348.257s.611.089 1.356.102v.62a61.38 61.38 0 0 0-2.647-.067c-.713 0-1.655.023-2.825.068v-.621c.734-.013 1.182-.047 1.344-.102.162-.055.271-.13.327-.228.08-.129.13-.442.15-.94.007-.136.023-1.055.047-2.755V8.343c-.132-.29-.26-.553-.384-.785a148.3 148.3 0 0 0-.957-1.665l-.622-1.046a35.123 35.123 0 0 0-1.088-1.763c-.457-.671-.835-1.153-1.135-1.443a1.42 1.42 0 0 0-.512-.34c-.178-.063-.456-.096-.83-.096m30.164 11.211l-.364.902a9.586 9.586 0 0 1-2.15.829 9.636 9.636 0 0 1-2.29.257c-.97 0-1.871-.127-2.704-.379a6.95 6.95 0 0 1-2.182-1.081 6.658 6.658 0 0 1-1.525-1.578 6.896 6.896 0 0 1-.9-1.897 7.709 7.709 0 0 1-.31-2.246c0-2.064.696-3.774 2.088-5.13C164.576.738 166.475.06 168.884.06c.57 0 1.097.034 1.582.102.485.068 1.077.198 1.774.388.697.19 1.124.302 1.28.335a6.633 6.633 0 0 0-.308 1.047c-.1.55-.17 1.187-.207 1.91h-.591l-.01-1.143c-.062-.634-.402-1.107-1.018-1.417-.616-.31-1.519-.465-2.708-.465-.888.014-1.642.13-2.263.354a4.315 4.315 0 0 0-1.636 1.057c-.473.482-.858 1.093-1.159 1.833-.3.74-.453 1.67-.46 2.788 0 1.96.578 3.535 1.736 4.727 1.157 1.193 2.687 1.79 4.59 1.79a7.5 7.5 0 0 0 2.383-.366 5.51 5.51 0 0 0 1.492-.788zm1.728 1.707v-.505c.385-.187.629-.336.735-.445a.473.473 0 0 0 .13-.224c.055-.18.093-.568.11-1.162a69.03 69.03 0 0 0 .047-1.58V4.994c0-.879-.007-1.738-.027-2.578-.02-.613-.064-.977-.136-1.09a.643.643 0 0 0-.347-.252c-.16-.055-.612-.09-1.356-.102v-.62c1.526.045 2.47.068 2.834.068.4 0 1.298-.023 2.693-.068v.62c-.744.013-1.196.047-1.355.102-.16.055-.27.13-.334.228-.075.129-.122.442-.14.94-.008.128-.023 1.046-.048 2.752v6.512c0 .678.016 1.23.048 1.656.713.045 1.42.068 2.12.068 1.765 0 3.001-.116 3.709-.348a4.77 4.77 0 0 0 .215-.67l.375-1.61h.629a85.96 85.96 0 0 0-.404 3.395 5.585 5.585 0 0 1-.61.096c-.324.02-.825.03-1.501.03l-5.557-.068c-.6 0-1.21.023-1.83.068m9.23-13.151v-.62a64.81 64.81 0 0 0 2.844.068c.888 0 1.771-.023 2.646-.068v.62c-.734.013-1.183.047-1.344.102-.162.055-.271.13-.328.228-.08.129-.13.442-.149.94-.008.128-.023 1.046-.046 2.752v3.585c0 1.389.086 2.305.258 2.747.172.443.445.81.82 1.1.289.22.676.396 1.165.528a6.237 6.237 0 0 0 1.632.198c.701 0 1.324-.088 1.87-.265.543-.179.951-.395 1.224-.65.271-.256.475-.541.61-.858.134-.316.232-.75.29-1.303.06-.553.09-1.252.09-2.098V4.994c0-.879-.017-1.738-.048-2.579-.012-.613-.054-.976-.126-1.09a.643.643 0 0 0-.35-.251c-.162-.055-.61-.089-1.344-.102v-.62c1.03.045 1.782.068 2.257.068.43 0 .885-.01 2.008-.056l.001.616c-.74.013-.867.04-1.026.094-.159.055-.27.13-.331.228-.075.129-.122.442-.14.94-.006.129-.019 1.047-.038 2.752V8.24c0 1.596-.108 2.71-.324 3.344-.216.633-.612 1.192-1.187 1.676-.431.362-.986.644-1.665.843-.679.2-1.432.3-2.259.3-.963 0-1.799-.117-2.505-.353-.707-.236-1.246-.546-1.615-.93-.368-.385-.622-.777-.76-1.178-.175-.53-.263-1.417-.263-2.664V4.994c0-.879-.008-1.738-.028-2.578-.018-.613-.064-.977-.136-1.09a.642.642 0 0 0-.347-.252c-.16-.055-.612-.089-1.356-.102"/><path d="M201.805 13.124c.47.116.967.174 1.486.174.828 0 1.496-.13 2.004-.392a2.665 2.665 0 0 0 1.17-1.186c.272-.53.41-1.136.41-1.82 0-.679-.128-1.248-.386-1.71a2.356 2.356 0 0 0-1.152-1.026c-.51-.223-1.353-.334-2.526-.334-.268 0-.614.013-1.034.039v3.67c0 .355.01 1.216.028 2.585zm-.028-7.05c.357.019.671.029.94.029.779 0 1.38-.062 1.802-.185.422-.122.75-.284.983-.485.232-.2.424-.471.579-.814.152-.343.23-.743.23-1.203 0-.808-.249-1.391-.747-1.75-.5-.359-1.228-.539-2.186-.539-.535 0-1.039.053-1.516.156-.057.535-.085 1.364-.085 2.486zm-2.674 8.049v-.456c.388-.2.603-.325.647-.374a.539.539 0 0 0 .104-.256c.037-.193.07-.605.099-1.234.028-.63.041-1.11.041-1.438V4.526c0-.632-.014-1.375-.046-2.228-.026-.535-.07-.867-.133-.996a.393.393 0 0 0-.198-.185c-.208-.09-.505-.13-1.159-.137l-.001-.616c.206.013.333.007.646.007l1.955.049 3.457-.088c.914 0 1.618.097 2.113.291.496.194.881.51 1.16.946.28.436.42.922.42 1.459 0 .427-.084.828-.25 1.202a3.12 3.12 0 0 1-.667.976c-.28.274-.59.497-.931.669-.341.17-.788.327-1.34.47.733.07 1.326.176 1.777.315.45.138.828.345 1.133.62.303.274.533.608.69 1.002.156.393.235.833.235 1.317 0 .956-.281 1.796-.842 2.524a4.993 4.993 0 0 1-2.165 1.612c-.658.259-1.437.388-2.34.388l-2.723-.077c-.295 0-.854.025-1.682.077zM212.55 2.51h.147c.277 0 .474-.051.593-.155.118-.103.177-.247.177-.434 0-.19-.05-.334-.15-.435-.1-.1-.265-.15-.495-.15h-.108c-.064 0-.102.007-.116.022a.202.202 0 0 0-.033.056.612.612 0 0 0-.014.17zm-.737 1.37v-.103c.136-.002.216-.008.24-.018s.041-.03.056-.058a.645.645 0 0 0 .02-.21V1.6a.684.684 0 0 0-.02-.216.106.106 0 0 0-.075-.057 1.348 1.348 0 0 0-.221-.014v-.106h1.102c.261 0 .461.029.6.085a.573.573 0 0 1 .296.241.66.66 0 0 1 .09.338.646.646 0 0 1-.176.45c-.116.129-.3.215-.552.259a.566.566 0 0 1 .186.082.75.75 0 0 1 .175.199c.053.083.12.217.2.403.08.186.138.307.176.363a.362.362 0 0 0 .119.118.43.43 0 0 0 .146.032v.102h-.287a.674.674 0 0 1-.263-.039.312.312 0 0 1-.142-.132 4.376 4.376 0 0 1-.262-.587 1.4 1.4 0 0 0-.156-.321c-.045-.06-.092-.098-.141-.12s-.125-.03-.227-.03h-.146v.84c0 .115.007.186.02.215a.12.12 0 0 0 .075.059c.021.007.085.01.19.013v.102zm-.958-1.248c0 .368.09.727.269 1.078.179.35.435.624.769.82.334.198.682.296 1.044.296.315 0 .614-.071.897-.214a2.141 2.141 0 0 0 1.009-1.096 2.18 2.18 0 0 0 .175-.884 2.285 2.285 0 0 0-.413-1.308c-.13-.18-.28-.336-.445-.466a1.994 1.994 0 0 0-1.223-.418c-.362 0-.71.097-1.044.293a1.96 1.96 0 0 0-.769.821c-.18.352-.269.71-.269 1.078zm-.29 0c0-.345.066-.67.2-.977a2.4 2.4 0 0 1 .485-.749c.19-.193.4-.347.627-.463a2.286 2.286 0 0 1 1.809-.134 2.368 2.368 0 0 1 1.15.858 2.524 2.524 0 0 1 .272 2.449c-.134.299-.3.548-.497.749-.196.2-.413.36-.65.478-.325.16-.667.24-1.024.24-.413 0-.81-.11-1.19-.329a2.231 2.231 0 0 1-.875-.918 2.569 2.569 0 0 1-.307-1.204zM22.269 23.638c-.496.214-.83.61-1.005 1.186-.177.577-.265 1.5-.265 2.77v21.563c0 2.259-.05 4.22-.154 5.885s-.332 3.1-.683 4.302a10.507 10.507 0 0 1-2.357 4.243c-1.124 1.243-2.545 2.225-4.26 2.942-1.715.717-3.642 1.076-5.78 1.076-2.074 0-3.724-.322-4.954-.965-1.612-.825-2.417-2.036-2.417-3.635 0-1.038.36-1.875 1.077-2.51.718-.635 1.668-.952 2.848-.952 1.15 0 2.058.292 2.729.878.669.585 1.005 1.413 1.005 2.485 0 .76-.216 1.435-.646 2.028-.432.593-1.053 1.03-1.868 1.31.32.232.91.347 1.772.347 1.196 0 2.226-.33 3.087-.989.862-.66 1.483-1.542 1.866-2.647.288-.873.5-1.796.635-2.769.135-.973.22-2.126.251-3.462s.048-3.33.048-5.985V27.594c0-1.27-.092-2.193-.275-2.77-.184-.576-.527-.972-1.03-1.186-.501-.215-1.296-.347-2.381-.397v-1.013c1.628.099 4.117.148 7.468.148 3.302 0 5.863-.05 7.682-.148v1.013c-1.1.05-1.9.182-2.393.397m16.658 1.051c-1.365 1.507-2.418 3.61-3.16 6.305-.742 2.696-1.113 5.782-1.113 9.262 0 3.51.415 6.602 1.245 9.272.83 2.671 1.954 4.732 3.374 6.183 1.42 1.45 3 2.175 4.74 2.175 1.802 0 3.385-.753 4.75-2.262 1.363-1.509 2.417-3.61 3.158-6.306.742-2.695 1.114-5.782 1.114-9.261 0-3.494-.415-6.581-1.244-9.26-.83-2.68-1.96-4.744-3.387-6.196-1.429-1.45-3.004-2.176-4.727-2.176-1.803 0-3.386.754-4.75 2.264m14.024-1.002c2.61 1.45 4.63 3.557 6.067 6.317 1.436 2.762 2.154 6.047 2.154 9.855 0 3.727-.74 7.024-2.214 9.892-1.477 2.868-3.53 5.094-6.162 6.676-2.633 1.583-5.625 2.374-8.976 2.374-3.46 0-6.497-.724-9.106-2.176-2.608-1.45-4.627-3.556-6.054-6.319-1.43-2.76-2.143-6.045-2.143-9.853 0-3.726.735-7.023 2.203-9.891 1.467-2.87 3.517-5.095 6.15-6.677 2.632-1.583 5.632-2.375 8.998-2.375 3.447 0 6.474.726 9.083 2.177m39.406.408c-.503.42-.846 1.063-1.029 1.928-.183.866-.275 2.164-.275 3.895v13.428c0 4.83-.67 8.408-2.01 10.732-.894 1.5-2.17 2.663-3.83 3.487S81.512 58.8 79.086 58.8c-3.765 0-6.709-.849-8.83-2.547-1.037-.857-1.832-1.855-2.382-2.992s-.925-2.468-1.125-3.994c-.2-1.525-.3-3.449-.3-5.774v-15.9c0-1.27-.091-2.193-.273-2.77-.184-.577-.528-.973-1.03-1.186-.502-.215-1.297-.347-2.38-.397v-1.013c1.675.1 4.218.148 7.633.148 3.382 0 5.983-.049 7.803-.148v1.013c-1.182.05-2.038.182-2.573.397-.536.213-.902.61-1.102 1.186-.199.577-.3 1.5-.3 2.77v19.09c0 2.375.208 4.307.624 5.799.415 1.492 1.112 2.622 2.094 3.388.982.767 2.333 1.15 4.056 1.15 3.255 0 5.556-1.137 6.905-3.412 1.348-2.275 2.023-5.507 2.023-9.694v-13.38c0-1.96-.117-3.415-.348-4.363-.231-.948-.674-1.636-1.328-2.065-.655-.429-1.683-.717-3.087-.866v-1.013c1.228.1 2.991.148 5.289.148 1.818 0 3.24-.049 4.26-.148v1.013c-1.07.15-1.855.433-2.358.854m22.784 14.876c1.029-.726 1.738-1.7 2.13-2.92.39-1.218.586-2.685.586-4.4 0-2.77-.476-4.863-1.425-6.281-.948-1.418-2.5-2.128-4.654-2.128-.877 0-1.528.12-1.95.359-.424.24-.71.66-.862 1.262-.151.602-.227 1.513-.227 2.733v12.462h2.105c1.836 0 3.267-.362 4.297-1.088m12.493 19.14c-1.013.461-2.23.693-3.65.693-1.883 0-3.374-.413-4.475-1.236-1.102-.826-1.82-2.242-2.153-4.255l-.887-5.045c-.286-1.63-.585-2.945-.898-3.943-.31-.998-.758-1.79-1.34-2.375-.583-.584-1.352-.877-2.31-.877h-3.182v11.647c0 1.269.087 2.194.263 2.77.176.576.511.972 1.005 1.187.494.215 1.293.347 2.393.396v1.014c-1.74-.1-4.203-.15-7.395-.15-3.494 0-6.071.05-7.73.15V57.07c1.085-.05 1.875-.181 2.37-.396.494-.215.833-.61 1.017-1.187.182-.576.275-1.501.275-2.77V27.595c0-1.27-.093-2.193-.275-2.77-.184-.577-.523-.973-1.017-1.187-.495-.215-1.285-.347-2.37-.397v-1.013c1.659.1 4.14.148 7.443.148 1.308 0 2.761-.016 4.356-.049 1.595-.033 2.704-.05 3.326-.05 4.5 0 7.89.763 10.172 2.288 2.282 1.524 3.424 3.697 3.424 6.515a9.336 9.336 0 0 1-1.03 4.278c-.687 1.353-1.852 2.528-3.495 3.523-1.643 1-3.814 1.662-6.509 1.993h.047c1.98.18 3.603.526 4.87 1.038 1.269.512 2.263 1.224 2.98 2.14.72.913 1.221 2.08 1.508 3.498l1.126 5.218c.27 1.368.577 2.316.92 2.844.343.526.825.79 1.447.79a1.996 1.996 0 0 0 1.006-.296c.287-.181.605-.47.957-.865l.67.617c-.894 1.039-1.846 1.79-2.86 2.251m33.481-34.014c-.502.42-.846 1.063-1.028 1.928-.184.866-.275 2.164-.275 3.895v28.266c-.24-.018-.64-.026-1.197-.026-.575 0-1.013.008-1.316.026L136.02 30.339v19.437c0 1.994.104 3.457.312 4.39.207.93.635 1.61 1.28 2.039.646.428 1.703.717 3.171.865v1.014c-1.26-.1-3.024-.147-5.289-.147-1.803 0-3.223.048-4.26.147V57.07c1.068-.148 1.855-.432 2.357-.853.504-.42.845-1.063 1.03-1.929.183-.865.275-2.163.275-3.894v-22.8c0-1.27-.092-2.193-.276-2.77-.184-.577-.522-.973-1.016-1.186-.496-.215-1.284-.347-2.37-.397v-1.013c1.037.1 2.457.148 4.26.148 1.644 0 3.047-.049 4.212-.148l18.98 24.16V30.535c0-1.994-.105-3.458-.313-4.389-.207-.93-.634-1.61-1.28-2.04-.646-.429-1.703-.717-3.17-.866v-1.013c1.259.1 3.023.148 5.288.148 1.818 0 3.24-.049 4.26-.148v1.013c-1.07.15-1.854.433-2.358.854m14.841 5.726l-5.072 13.674h9.931zm18.571 26.447c.543.503 1.087.77 1.628.804v1.013c-1.961-.1-4.444-.148-7.442-.148-3.35 0-5.832.049-7.443.148v-1.013c1.227-.05 2.11-.207 2.644-.47.533-.265.8-.726.8-1.385 0-.511-.198-1.311-.596-2.4l-2.944-8.308h-10.674l-1.292 3.487c-.895 2.374-1.34 4.254-1.34 5.638 0 1.253.358 2.127 1.077 2.622.717.494 1.802.766 3.254.816v1.013c-2.202-.1-4.229-.148-6.08-.148-1.498 0-2.743.049-3.732.148v-1.013c1.626-.281 3.03-2.053 4.212-5.317l11.176-29.625c.527.049 1.093.074 1.7.074.637 0 1.203-.025 1.7-.074l11.893 31.701c.432 1.123.917 1.934 1.46 2.437zm14.828-32.629c-.537.214-.902.61-1.101 1.186-.2.577-.299 1.5-.299 2.77v25.717c0 1.088.075 1.876.226 2.362.153.487.439.817.861.99.425.172 1.09.26 1.999.26h2.393c1.485 0 2.845-.47 4.082-1.41 1.235-.94 2.272-2.263 3.11-3.97.838-1.705 1.416-3.68 1.736-5.923h1.124c-.095 1.155-.143 2.639-.143 4.452 0 3.249.111 5.919.335 8.012-2.218-.099-5.959-.148-11.225-.148-7.115 0-12.436.05-15.962.148v-1.013c1.083-.05 1.874-.181 2.37-.396.493-.215.833-.61 1.017-1.187.181-.577.274-1.501.274-2.77V27.594c0-1.27-.093-2.193-.274-2.77-.184-.576-.524-.972-1.018-1.186-.495-.215-1.286-.347-2.37-.397v-1.013c1.644.099 4.222.148 7.73.148 3.318 0 5.889-.05 7.707-.148v1.013c-1.18.05-2.038.182-2.572.397"/></g></svg>