<svg height="35" viewBox="0 0 117 35" width="117" xmlns="http://www.w3.org/2000/svg"><g fill="#fff" fill-rule="evenodd" transform=""><path d="m6.38350108 7.02347248c.0523504-.31917431.08357143-.83614679.09303234-1.55155964h.32860917c.01639892.48614679.04352021.77321101.08104852.86119266.0375283.08798166.12835309.18206422.27247439.28192661.14412129.09986239.33712399.18880734.57932345.26715596.24219946.07802753.47619946.11720184.702.11720184.33050135 0 .63514286-.07738532.9132938-.23247707.27815094-.15509174.48124528-.35866972.60865229-.61009174.12740696-.25206422.19174126-.52146789.19174126-.80821101 0-.21931192-.0318518-.40876147-.0958706-.56866972-.06370354-.15958716-.16052026-.28866973-.29139627-.38660551s-.29265768-.16729358-.48534501-.20711009c-.12078437-.01958716-.3623531-.05394495-.72502156-.10178899-.36266847-.04784404-.67172507-.09986239-.92653909-.15637615-.34027762-.1062844-.59036118-.23055046-.75056603-.37376146-.16020486-.14288991-.29013478-.33041285-.39010513-.56321101-.09933962-.23215597-.14948248-.48325688-.14948248-.75233945 0-.39174312.10060108-.76133028.30148788-1.10876147.20120215-.34711009.49859029-.61683486.89247978-.80949541.39388949-.19298166.82089218-.28931193 1.28195418-.28931193.27752021 0 .58090027.03756881.90919407.11238532.32860916.07545872.63482746.18431193.91928576.32784404-.0457278.2093578-.0785257.40458715-.0980782.58600917-.0195526.18110092-.0343747.44793578-.044151.80050459h-.3282938c-.0097762-.51247707-.0245983-.79183486-.0444663-.8383945-.0816792-.11977064-.19300266-.22766055-.33397032-.32463302-.33680862-.19298166-.68907008-.28931193-1.05552291-.28931193-.474938 0-.85369002.14706422-1.13688679.44055046s-.42447978.67399082-.42447978 1.14183486c0 .28256881.05045822.50155963.15169002.65633028.10154717.15477064.28319677.27839449.54494879.37183486.17944205.06325688.47367655.12233945.88238814.17853211.40839623.05555046.77579515.11527523 1.10251213.17853211.30716442.09311926.53422642.20389908.68150132.33201835.1469596.12811926.267744.29637614.3626685.50444954.0946092.20839449.1422291.45211009.1422291.73178899 0 .66275229-.2696361 1.24041284-.8089084 1.73298165-.53927219.49288991-1.23717246.73917431-2.0933854.73917431-.64712668 0-1.2337035-.12972477-1.76004582-.39013761"/><path d="m11.7271213 7.26898624v-.31949541c.3431159-.00321101.5689164-.02986239.6764555-.07963303.0460431-.02022936.0785256-.05169725.0980782-.09472477.0327978-.06646789.055504-.24082569.0687493-.5233945.0195526-.43830275.0293289-.81752293.0293289-1.13637614v-2.54665138c0-.45178899-.0047305-.89394495-.0145068-1.32614679-.0100916-.3153211-.0337439-.50188073-.0712722-.5603211-.0375283-.05779817-.0980782-.10114679-.1813343-.12972477-.083256-.02793578-.3194636-.04559633-.7083072-.05201835v-.31949541l1.397062.02986238 1.4806334-.02504587c.708938-.00995413 1.2239272-.01477064 1.5440215-.01477064.3235634 0 .6294664.01798165.9167629.05458716-.0520351.18977064-.0879866.35449541-.1078545.49417431-.0063073.02986238-.0359515.37633027-.0883019 1.03844036h-.3087412c.0031536-.33940367-.0179758-.64894495-.0637035-.92862385-.1797574-.07642202-.3774906-.12779816-.5931995-.15444954-.3661375-.04688073-.7319596-.07-1.098097-.07-.0782103 0-.2532372.00706422-.5244502.02022936-.2712129.01316513-.4657924.02472477-.5834231.0346789-.0132453.36798165-.0230216.71284403-.0293289 1.03458715l-.0195525 1.6809633c.382221.02311927.7335363.0346789 1.0536307.0346789.389159 0 .7209218-.01798165.9952884-.05490825.1047008-.01316514.1718733-.04013762.2008868-.07995413.0296442-.03981652.0558194-.1759633.0785256-.40908257l.0296442-.3493578h.2939191v.09472477l-.024283 1.03811927.024283 1.16334862h-.3431159l-.0148221-.33940367c-.0066226-.2466055-.0283827-.39944954-.065911-.45949541-.0378437-.05972477-.1088006-.10146789-.2135014-.12458716-.18638-.03981651-.5474717-.06004587-1.0832749-.06004587-.2191779 0-.529496.00834863-.9312695.02504587-.0167143.33266055-.0245984.82683487-.0245984 1.48252294 0 .61555046.0078841 1.08307339.0245984 1.40256881.4695768.0369266.9965498.05490825 1.5809191.05490825.4143881 0 .7095687-.01316513.8858571-.03981651.1762885-.02697248.3396469-.0716055.4897601-.13486239.0391052-.10307339.0778949-.24275229.1173154-.41935779.071903-.29605505.1192076-.51889909.1419138-.66885321h.3282938c-.0848329.67206422-.127407 1.22917431-.127407 1.67133027-.2809893.04399083-.6225283.06582569-1.0243019.06582569l-2.9268922-.035c-.0425741 0-.4705229.01188073-1.2844771.035"/><path d="m19.5491863 4.46876147h2.4711913l-1.2204582-3.00422019zm-2.2841806 2.8003211v-.33972477c.2589137-.00321101.4197493-.01412844.4837682-.03243119.0637035-.01798166.1226765-.05298166.1769191-.1046789.0536119-.05169725.1315067-.18527523.2330539-.40201835.0586577-.12266055.2715283-.59018349.6379811-1.40256881l1.2273963-2.81509174c.1340296-.30954129.42038-.99830275.8590512-2.06660551h.313787l2.0962238 5.00660551c.3402776.81206422.5660781 1.32100917.6774016 1.52747706.062442.11655963.1302453.19298165.2040404.22990826.0734798.0366055.2396766.05619266.4982749.05940367v.33972477c-.5108895-.0333945-.867566-.05009174-1.0706603-.05009174l-1.5796577.05009174v-.33972477c.3658221-.00642202.5881536-.01798165.6666792-.0346789s.1315068-.04077982.1592588-.07256881.041628-.0706422.041628-.11720183c0-.07321101-.0230216-.16793578-.0687493-.28449542l-.6020297-1.52747706h-2.8389056l-.5326496 1.28279816c-.0949245.22958716-.1425445.39784404-.1425445.50444955 0 .04623853.0132453.08444954.0394205.11463302.0359515.04334863.0917709.07321101.1671428.08958716.1207844.02697248.3333397.04174312.6370351.04495413v.33972477c-.5525175-.03018349-.9662749-.04527523-1.2415876-.04527523-.3178868 0-.6651024.01509174-1.0422776.04527523z"/><path d="m29.4651097.67013762h-2.4109569c-.0327978.31917431-.0488814.74977064-.0488814 1.29178899v2.91752293c0 .45243119.0047305.89298165.0145068 1.32229358.0100916.3156422.0337439.50316514.0712722.56321101s.0980782.1040367.1813342.13229358c.0835715.02793578.3194636.04559633.7083073.05233945v.31949541c-.585-.02665138-1.0246172-.03981651-1.3185364-.03981651-.127407 0-.6376657.01316513-1.5298302.03981651v-.31949541c.3869515-.00674312.6228437-.02440367.7070459-.05233945.0848328-.02825688.1419137-.0674312.1709272-.11720184.0425741-.06678899.0684339-.22798165.0782102-.48389908 0-.0696789.0078841-.54201835.0245984-1.41669725v-2.90756881c0-.1396789-.003469-.29252293-.0100916-.45885321l-.0293289-.8428899h-.7303827c-.4216415 0-.756558.01669724-1.0050647.04977064-.0785256.01027523-.1289838.03178899-.1520054.06486238-.0359515.05683487-.0687493.23825688-.0977628.54426606l-.0539272.50412844h-.3043262c-.0031536-.79504587-.0195525-1.34573395-.0488814-1.65206422.3563612.01316514.915186.02954128 1.6767898.04977064.6174825.01316514 1.0293477.01990826 1.2352803.01990826.2223315 0 2.4819137-.01348624 2.4819137-.01348624"/><path d="m29.075383.23738991s2.3491456.01348624 2.5550782.01348624c.2220162 0 .73669-.00995413 1.5440215-.03018349.585-.01316514 1.0116874-.02665138 1.2797467-.03981651-.0394205.37279816-.0655957.92348624-.0785256 1.65238532h-.3137871l-.0391051-.47908257c-.0264906-.28995413-.044151-.4543578-.0539272-.49449541-.0100917-.04013762-.0239677-.0677523-.0416281-.08477065-.0182911-.01669724-.045097-.02986238-.0810485-.03981651-.0460431-.00995413-.2094016-.02311927-.4903908-.04013761-.2809892-.01637615-.5030054-.02472477-.6666793-.02472477h-.5979299c-.0327978.31917431-.0491967.74977064-.0491967 1.29178899v2.91752293c0 .45211009.0050458.89266055.0148221 1.32197248.0097762.3159633.0334285.50348624.0712722.56353211.0372129.06004587.0977628.1037156.1810189.13197248.0835714.02825688.3197789.04591743.7086226.05233945v.31949541c-.585-.02665138-1.0249326-.03981652-1.3188518-.03981652-.127407 0-.6373504.01316514-1.5295148.03981652v-.31949541c.3869515-.00642202.6225283-.02408257.7070458-.05233945.0845176-.02825688.1415984-.0674312.1709273-.11688074.0422587-.06678899.0684339-.22798165.0778948-.48422018 0-.0696789.0081995-.54169725.0245984-1.41637615v-2.90788991c0-.13935779-.0031536-.29252293-.0097762-.45853211l-.0293289-.8428899h-2.5430943"/><path d="m35.2827218 7.26898624v-.25977064c.2005715-.09600918.3286092-.1727523.3834825-.22894496.0324825-.03018348.0551887-.06839449.0681186-.11527523.0286981-.09279816.0482507-.29252293.058027-.59821101.0163989-.4556422.0245983-.72665137.0245983-.81302752v-2.68344037c0-.45211009-.0047304-.89458715-.0148221-1.32678899-.0097762-.3156422-.0334285-.50284403-.0709568-.5612844-.0375283-.05779817-.0980782-.10114679-.1813343-.12940367-.083256-.02825688-.3197789-.04591743-.7083072-.05233945v-.31949541c.7972399.02311926 1.2907843.035 1.480318.035.2090863 0 .6780324-.01188074 1.4071537-.035v.31949541c-.3891591.00642202-.6250513.02408257-.7086227.05233945-.083256.02825688-.141283.06711009-.1740808.11720183-.0391052.06646789-.0637035.22766056-.0734798.48357799-.0040998.06646789-.0119839.53880734-.0245984 1.41669724v3.35165138c0 .3493578.0081995.63321101.0245984.85284404.3727601.02311926.7420512.0346789 1.1081887.0346789.9214932 0 1.5670431-.05972477 1.9363342-.17917432.0425741-.10018348.0801024-.21481651.1125849-.34486238l.1961563-.82844037h.3286092c-.0722183.49577982-.1422291 1.07825688-.2109784 1.74711009-.1340297.02665138-.239992.04334863-.3185176.04977065-.1699811.00995412-.4314178.01509174-.7843099.01509174l-2.9022938-.035c-.3137871 0-.63262.01188073-.955868.035"/><path d="m40.4387951 7.26898624v-.31949541c.343116-.00321101.5689165-.02986239.6767709-.07963303.0457278-.02022936.0782103-.05169725.0977628-.09472477.0327979-.06646789.0558194-.24082569.0687494-.5233945.0195525-.43830275.0293288-.81752293.0293288-1.13637614v-2.54665138c0-.45178899-.0050458-.89394495-.0148221-1.32614679-.0097763-.3153211-.0334286-.50188073-.0709569-.5603211-.0375283-.05779817-.0980781-.10114679-.1813342-.12972477-.0832561-.02793578-.3194636-.04559633-.7086226-.05201835v-.31949541l1.3973773.02986238 1.4806334-.02504587c.708938-.00995413 1.2236119-.01477064 1.5440216-.01477064.3235633 0 .6291509.01798165.9167628.05458716-.052035.18977064-.0883019.35449541-.1078544.49417431-.0063073.02986238-.0359515.37633027-.0883019 1.03844036h-.3087413c.0031537-.33940367-.0179757-.64894495-.0637035-.92862385-.1797574-.07642202-.3774905-.12779816-.5931994-.15444954-.3661375-.04688073-.7319596-.07-1.0980971-.07-.0782102 0-.2532372.00706422-.5247655.02022936-.2708975.01316513-.4657924.02472477-.5831078.0346789-.0132453.36798165-.0230215.71284403-.0293288 1.03458715l-.0198679 1.6809633c.3825363.02311927.7338517.0346789 1.0542614.0346789.3888437 0 .7206065-.01798165.9949731-.05490825.1047008-.01316514.1718733-.04013762.2008867-.07995413.0296443-.03981652.0558195-.1759633.0785257-.40908257l.0296442-.3493578h.2942345v.09472477l-.0245984 1.03811927.0245984 1.16334862h-.3434313l-.0148221-.33940367c-.0066227-.2466055-.0283828-.39944954-.0659111-.45949541-.0378436-.05972477-.1088005-.10146789-.2135013-.12458716-.1860647-.03981651-.5471563-.06004587-1.0832749-.06004587-.2191779 0-.529496.00834863-.9315849.02504587-.016399.33266055-.0242831.82683487-.0242831 1.48252294 0 .61555046.0078841 1.08307339.0242831 1.40256881.4698921.0369266.9971805.05490825 1.5812345.05490825.4143881 0 .7095687-.01316513.8858571-.03981651.1762884-.02697248.3396469-.0716055.4897601-.13486239.0387898-.10307339.0782102-.24275229.1173154-.41935779.0719029-.29605505.1192075-.51889909.1419137-.66885321h.3286092c-.0851483.67206422-.1277224 1.22917431-.1277224 1.67133027-.2809892.04399083-.6225283.06582569-1.0243019.06582569l-2.9268922-.035c-.0425741 0-.4705229.01188073-1.2844771.035"/><path d="m50.1237776 7.02347248c.0523504-.31917431.0835715-.83614679.0930324-1.55155964h.3286091c.016399.48614679.0435203.77321101.0810486.86119266.0375283.08798166.1283531.18206422.2724743.28192661.1441213.09986239.337124.18880734.5793235.26715596.2421995.07802753.4761995.11720184.702.11720184.3305013 0 .6351429-.07738532.9132938-.23247707.2781509-.15509174.4809299-.35866972.6086523-.61009174.127407-.25206422.1914259-.52146789.1914259-.80821101 0-.21931192-.0315364-.40876147-.0955553-.56866972-.0637035-.15958716-.1608356-.28866973-.2913962-.38660551-.130876-.09793578-.2926577-.16729358-.485345-.20711009-.1207844-.01958716-.3623531-.05394495-.725337-.10178899-.3623531-.04784404-.6714097-.09986239-.926539-.15637615-.3399623-.1062844-.5900459-.23055046-.7502507-.37376146-.1602049-.14288991-.2901348-.33041285-.3901051-.56321101-.099655-.23215597-.1494825-.48325688-.1494825-.75233945 0-.39174312.1006011-.76133028.3014879-1.10876147.2012021-.34711009.4982749-.61683486.8924797-.80949541.3935742-.19298166.8208922-.28931193 1.2816389-.28931193.2778355 0 .5809002.03756881.9095094.11238532.3286092.07545872.6348275.18431193.9192857.32784404-.0457278.2093578-.0785256.40458715-.0980782.58600917-.0198679.18110092-.0343746.44793578-.0441509.80050459h-.3286092c-.0097763-.51247707-.024283-.79183486-.0441509-.8383945-.0816793-.11977064-.1930027-.22766055-.3339704-.32463302-.3368086-.19298166-.68907-.28931193-1.0555229-.28931193-.474938 0-.85369.14706422-1.1368868.44055046-.2831967.29348624-.4247951.67399082-.4247951 1.14183486 0 .28256881.0507736.50155963.1520054.65633028.1015471.15477064.2831967.27839449.5449488.37183486.179442.06325688.4736765.12233945.8820727.17853211.4083963.05555046.7761105.11527523 1.1028275.17853211.3071644.09311926.5342264.20389908.6815014.33201835.1469595.12811926.2677439.29637614.3626684.50444954.0946092.20839449.1422292.45211009.1422292.73178899 0 .66275229-.2696362 1.24041284-.8089084 1.73298165-.5395876.49288991-1.2371725.73917431-2.0933854.73917431-.6471267 0-1.2337036-.12972477-1.7600459-.39013761"/><path d="m55.2696647 1.83316514h-.3040108c-.0031536-.79536697-.0195526-1.34573395-.0488814-1.65238532.3560458.01348624.915186.02986238 1.6764744.05009174.6177978.01316514 1.0293477.01990826 1.2352803.01990826.2223316 0 .7373208-.00995413 1.544337-.02986239.5853153-.01316514 1.0116873-.02665137 1.2794312-.04013761-.0394205.37311926-.0652803.92348624-.0782102 1.65238532h-.3137871l-.0391051-.47908257c-.0261752-.28995413-.0438356-.4543578-.0539272-.49417431-.0100917-.04013762-.0239677-.0680734-.0419434-.08509175-.0176604-.01669724-.0447817-.02986238-.0804178-.03981651-.0460431-.00995413-.2090863-.02311927-.4907062-.04013761-.2809892-.01637615-.5030054-.02472477-.6666793-.02472477h-.5979299c-.0327978.31917431-.0488814.74977064-.0488814 1.29178899v2.91752293c0 .45243119.0047305.89298165.0145068 1.32197248.0100916.3159633.0331132.50348624.0709568.56353211.0375283.06004587.0980782.1040367.1816496.13229358.0829407.02793578.3191483.04559633.7086227.05233945v.31949541c-.5856308-.02665138-1.0249326-.03981651-1.3191672-.03981651-.127407 0-.637035.01316513-1.5295148.03981651v-.31949541c.3869515-.00674312.6225283-.02440367.7073612-.05233945.0845175-.02825688.141283-.0674312.1706119-.11720184.0422587-.06678899.0681186-.22798165.0778948-.48422018 0-.0693578.0081995-.54169725.0245984-1.41637615v-2.90756881c0-.1396789-.0031536-.29252293-.0097762-.45885321l-.0293289-.8428899h-.7306981c-.4216415 0-.756558.01669724-1.0050647.04977064-.0782102.00995413-.1289838.03178899-.15169.06486238-.0362669.05683487-.0687493.23825688-.0980782.54426606z"/><path d="m61.0053453.50046789v-.31949541c.5326496.02311926 1.0277709.035 1.4853639.035.464531 0 .9252776-.01188074 1.3825552-.035v.31949541c-.3834825.00674312-.6177978.02408257-.7026307.05233945-.0838868.02825688-.1409677.06711009-.1706119.11720183-.0422587.06646789-.0684339.22766056-.0775795.48357799-.0044151.06646789-.0122992.53880734-.0245984 1.41669724v1.84536698c0 .71477064.0454124 1.18646789.1346604 1.41380734.0898787.22798165.2327386.41678899.4288949.56610091.1507439.11334863.3528922.20389909.6080216.27197248.2544986.06807339.5392722.10211009.8530593.10211009.3661374 0 .6909622-.04527523.9760512-.13678899.2838275-.09183486.4973288-.20293578.6392426-.33426605.1422291-.13165138.2485067-.2787156.3188328-.44151377.0696955-.16279816.1210998-.3862844.1516901-.67077981.031221-.28449541.0469892-.64444954.0469892-1.08018349v-1.53582569c0-.45211009-.0085148-.89458715-.0249138-1.32711009-.0066226-.3156422-.027752-.50252293-.065911-.5609633-.0375283-.05779817-.0977628-.10114679-.1832264-.12940367-.0842022-.02825688-.3178868-.04559633-.702-.05233945v-.31949541c.5383261.02311926.9315849.035 1.1791455.035.2251698 0 .3869515-.00256881.9738437-.02568808l.244407.31018349c-.3869515.00674312-.6218976.02408257-.7048383.05233945s-.1403369.06711009-.1734501.11720183c-.0387898.06646789-.0630728.22766056-.0728491.48389909-.0031536.06646789-.0094609.53880734-.0195525 1.41637614v1.67100918c0 .82137614-.0558194 1.39486238-.1693504 1.72110092-.1125849.32559633-.3194636.61330275-.6203208.86247706-.2248544.18655963-.5146738.33137615-.8691428.43412844-.3547844.10307339-.7486739.15444954-1.179461.15444954-.5030054 0-.9397843-.06036697-1.3090754-.18174312-.3696065-.12137614-.6502804-.2809633-.8432831-.47876147-.1926873-.19811926-.3251401-.39977064-.3973584-.60623853-.0914556-.27293578-.136868-.72954128-.136868-1.37142202v-2.205c0-.45211009-.0050458-.89458715-.0148221-1.32678899-.0091455-.3156422-.0334285-.50284403-.0709568-.5612844-.0375283-.05779817-.0980782-.10114679-.1816496-.12940367-.0829407-.02825688-.3191483-.04559633-.7083073-.05233945"/><path d="m69.93131 6.72462385c.3601455.06357798.7388975.09504587 1.1375175.09504587.4121806 0 .7751644-.0366055 1.0908437-.10981651.3153638-.07288991.5853153-.1762844.8089083-.30922018.2239084-.13293578.4405634-.32880734.6493342-.58857798.2094017-.25912844.3702372-.59114679.4834529-.99477065.1122695-.40394495.1687197-.82201834.1687197-1.25454128 0-.61811927-.1084852-1.14954129-.3254556-1.59362385-.2176011-.44344037-.5455795-.78348624-.9836199-1.01949542-.4377251-.23665137-1.0388086-.35449541-1.8038814-.35449541-.402089 0-.8108006.03178899-1.2258194.09504587-.0094609.16279817-.0179758.45211009-.024283.86761468l-.0195526.72344037v1.98954128l.0145067 1.54642202c.003469.23600917.0132453.53880734.0293289.90743119m-1.5146927.54426606v-.23954129c.1876415-.10981651.3446927-.2096789.4705229-.29926605.0198679-.22605505.0362668-.54009174.0495121-.94211009.0227062-.68458716.0340593-1.15917431.0340593-1.42536698v-2.033211c0-.32559633-.0081995-.70770643-.0245984-1.14633028-.0129299-.27582569-.0359515-.44665138-.06938-.51279816-.0227062-.04366973-.0564502-.07513762-.103124-.09504588-.1084852-.04655963-.333655-.0716055-.6751941-.07481651l.1337143-.31018349c.4768302.01669725.7647574.01573395 1.1305795.01573395.2813046 0 .6644717-.00577982 1.1498167-.01733945.4856604-.01188073.8618895-.01766055 1.1299488-.01766055.8007089 0 1.4443666.1040367 1.9319191.31211009.4869219.20743119.9000485.55582569 1.2396954 1.04454128.340593.4890367.5102588 1.08564221.5102588 1.79077982 0 .50573395-.0804178.9793578-.2403073 1.42151376-.1595741.44247707-.3765444.82876147-.6518571 1.16013762-.2737359.33073394-.567655.59243119-.8808113.78541284-.3141025.19298165-.643027.33811927-.9874043.43637615-.3446928.09825688-.8177386.14706422-1.4181914.14706422-.19931 0-.4692615-.00545872-.808593-.01733945-.4440324-.01188074-.7347979-.01766055-.8722965-.01766055-.1986793 0-.5484178.01188073-1.0482695.035"/><path d="m74.8776663.62027064v-.30440367l1.1813531-.23472477c.130876.04655964.2207547.09055046.2702669.13197248.048566.04174312.1513746.16857798.3081105.38146789.2321078.3156422.5001671.74623853.8041779 1.29114679.3043261.54522936.6275741 1.16816514.9710054 1.86977064.3472156-.54201835.702-1.13027523 1.0649838-1.76477064l1.0454312-1.80972477h.7474124v.13486238c-.1797574.20293578-.5099433.64316514-.9905579 1.32100918-.2778356.39238532-.6389272.96233945-1.0832749 1.71018348-.2778356.46206422-.4348868.74527523-.4708383.84995413-.0356361.1046789-.0539272.20357798-.0539272.29669725v.3843578c0 .45243119.0050458.89330275.0148221 1.32261468.0097762.3162844.0337439.50412844.0712722.56417431.0378437.05972477.0977628.1040367.1813342.13229358.0835715.02825688.3194636.04559633.7086227.05233945v.31949541c-.5323343-.02311927-.9937116-.035-1.3828706-.035-.3721294 0-.8644124.01188073-1.4752723.035v-.31949541c.3834825-.00674312.6174825-.02408257.702-.05233945s.1415984-.0674312.1706119-.11720184c.0422587-.06646789.0684339-.22798165.0782102-.48422018.0040998-.07.0122992-.54266055.0245984-1.41766055v-.58408257c-.0687493-.14931193-.1356065-.28417431-.2005714-.40362385-.0463585-.08316514-.2128706-.36894496-.4998518-.85733945l-.3245094-.53848624c-.2544987-.42545872-.4440324-.72793578-.5682857-.90711009-.2387305-.34550459-.4364636-.5933945-.5931995-.74302753-.0851482-.08316513-.1740808-.1409633-.2674286-.1743578-.0930323-.03307339-.2377843-.04977064-.4336253-.04977064"/><path d="m90.6335612 6.3903578-.1904798.46431192c-.3825364.19651377-.7571887.33876147-1.1226954.42674312-.3664528.08830276-.7653882.13229358-1.1968059.13229358-.5058437 0-.9769974-.06518348-1.4118841-.19490825-.4342561-.12972478-.8142696-.31532111-1.1397251-.55646789-.3251402-.241789-.5906766-.51215597-.7966092-.81206422-.2059326-.29958716-.3629838-.62518349-.4698922-.97646789-.1081698-.35096331-.1624124-.73692661-.1624124-1.15628441 0-1.06220183.3636146-1.94233945 1.0908437-2.64009174.7275445-.69743119 1.7196793-1.04646789 2.9779811-1.04646789.2977035 0 .5730162.01766055.825938.05266055.2535526.035.5629246.10178899.9268545.19940367.3642453.09825688.5872075.15573394.6688868.17243119-.0715876.18302752-.1248841.36252294-.1614663.53912844-.0523504.28256881-.0883019.61073395-.1078545.98321101h-.3087412l-.0053612-.58857798c-.0321671-.32655963-.209717-.56963303-.5313881-.72922018-.3219866-.15958716-.7934556-.23954129-1.4147224-.23954129-.4639003.00706422-.8574744.06743119-1.1816685.18238532-.3232479.11463303-.6083369.29605505-.8549515.54394496-.2469299.2478899-.448132.5625688-.6051832.94339449-.1570513.38114679-.2368383.85926606-.2406227 1.435 0 1.00857798.302434 1.8196789.9069865 2.43330275.6045526.61394496 1.4036847.92123854 2.3973963.92123854.447186 0 .8628355-.06293578 1.2450566-.18848624.261752-.08541285.5212965-.22091743.7792641-.40555046z"/><path d="m91.5359119 7.26898624v-.25977064c.2008868-.09600918.3282938-.1727523.3837978-.22894496.0318518-.03018348.0551887-.06839449.0678032-.11527523.0290135-.09279816.0485661-.29252293.058027-.59821101.0163989-.4556422.024283-.72665137.024283-.81302752v-2.68344037c0-.45211009-.0040997-.89458715-.0145067-1.32678899-.0097763-.3156422-.0331132-.50284403-.0709569-.5612844-.0375283-.05779817-.0980782-.10114679-.1810189-.12940367-.0835714-.02825688-.3197789-.04591743-.7083072-.05233945v-.31949541c.7969245.02311926 1.290469.035 1.480318.035.2090863 0 .677717-.01188074 1.4065229-.035v.31949541c-.3885283.00642202-.6247358.02408257-.7079919.05233945-.0835714.02825688-.141283.06711009-.1743962.11720183-.0391051.06646789-.0633882.22766056-.0731644.48357799-.0040998.06646789-.0119839.53880734-.0249138 1.41669724v3.35165138c0 .3493578.0085148.63321101.0249138.85284404.3724447.02311926.7417358.0346789 1.1078733.0346789.9214932 0 1.5673585-.05972477 1.9366496-.17917432.0422587-.10018348.0801024-.21481651.1125849-.34486238l.195841-.82844037h.3282938c-.0715877.49577982-.1419138 1.07825688-.2106631 1.74711009-.1337143.02665138-.2396766.04334863-.3185175.04977065-.1696658.00995412-.4311025.01509174-.78431.01509174l-2.9022938-.035c-.3137871 0-.63262.01188073-.9558679.035"/><path d="m96.3565957.50046789v-.31949541c.5323342.02311926 1.0280862.035 1.4856792.035.4639003 0 .9252777-.01188074 1.3822399-.035v.31949541c-.3834825.00674312-.6181132.02408257-.7023153.05233945-.0845176.02825688-.1415984.06711009-.1709273.11720183-.0422587.06646789-.0684339.22766056-.0778948.48357799-.0040998.06646789-.0119839.53880734-.0242831 1.41669724v1.84536698c0 .71477064.0447817 1.18646789.1346604 1.41380734.0898787.22798165.2327386.41678899.4288949.56610091.1504286.11334863.3528922.20389909.6080216.27197248.2544986.06807339.5392722.10211009.8527438.10211009.366138 0 .691278-.04527523.976051-.13678899.283828-.09183486.497329-.20293578.639558-.33426605.141914-.13165138.248192-.2787156.318833-.44151377.070011-.16279816.1211-.3862844.15169-.67077981.030906-.28449541.046674-.64444954.046674-1.08018349v-1.53582569c0-.45211009-.008515-.89458715-.024914-1.32711009-.006307-.3156422-.028067-.50252293-.065595-.5609633-.037529-.05779817-.098709-.10114679-.182911-.12940367-.084518-.02825688-.318518-.04559633-.702-.05233945v-.31949541c.53801.02311926.930638.035 1.178514.035.22517 0 .462324-.00513762 1.048901-.02857798l.00063.3169266c-.38632.00674312-.452862.02022936-.535803.04848624s-.140652.06711009-.173135.11720183c-.039105.06646789-.063703.22766056-.072849.48389909-.003469.06646789-.009776.53880734-.020183 1.41637614v1.67100918c0 .82137614-.056135 1.39486238-.169035 1.72110092-.112585.32559633-.319464.61330275-.620005.86247706-.22517.18655963-.51499.33137615-.869774.43412844-.354469.10307339-.748043.15444954-1.179776.15444954-.5030057 0-.9394693-.06036697-1.308445-.18174312-.3692911-.12137614-.6505957-.2809633-.843283-.47876147-.1926874-.19811926-.3251402-.39977064-.3973585-.60623853-.0911402-.27293578-.1371833-.72954128-.1371833-1.37142202v-2.205c0-.45211009-.0044151-.89458715-.0145068-1.32678899-.0097762-.3156422-.0334285-.50284403-.0712722-.5612844-.0378437-.05779817-.0977628-.10114679-.1810189-.12940367-.0835714-.02825688-.3197789-.04559633-.7086226-.05233945"/><path d="m105.407287 6.75506422c.245668.05972477.504897.08958716.77611.08958716.432364 0 .781157-.0674312 1.046378-.20197248.264905-.13454129.469261-.33779817.611175-.61041284.142229-.27261468.214132-.58472478.214132-.93697248 0-.3490367-.066857-.64188074-.201518-.87949541-.134345-.23761468-.335231-.41389909-.601399-.52853211-.267113-.11463303-.707045-.171789-1.319482-.171789-.140337 0-.320725.00674312-.540218.01990826v1.8887156c0 .18302752.005046.62646789.014822 1.3309633zm-.014822-3.62908257c.186695.00995413.350684.01509174.491337.01509174.406504 0 .719975-.03178899.941045-.09504587.22044-.06293578.391682-.14642202.513097-.24949541.121416-.10275229.221701-.24275229.302434-.4193578.079787-.1762844.119839-.38243119.119839-.61908257 0-.41550458-.129615-.71605504-.38979-.90068807-.261121-.18463303-.64145-.27711009-1.141933-.27711009-.279097 0-.542426.02697248-.791563.07995413-.029644.27550458-.044466.7022477-.044466 1.27990825zm-1.396747 4.14316514v-.23472477c.202464-.1030734.315049-.16697248.33807-.19233945.023022-.02472477.041628-.0683945.054243-.13197248.019237-.09922018.036582-.31114679.051719-.63513761.014823-.32399083.021445-.57091743.021445-.74013762v-3.00518348c0-.32559633-.007569-.70770643-.024283-1.14665138-.013245-.27582569-.036582-.44665138-.06938-.51279816-.022706-.04366973-.057396-.07513762-.103439-.09504588-.108485-.04655963-.263644-.06743119-.605184-.0709633l-.00063-.3166055c.107854.00642201.174081.00353211.337439.00353211l1.021148.02504587 1.805459-.04527523c.477776 0 .84549.04977064 1.104088.14995413.258914.09954128.460116.26201835.605814.48678899.145699.22444954.219178.47458715.219178.75073394 0 .21995413-.043835.42642202-.130876.61908257-.086409.19330275-.202463.36027523-.348161.50188074-.145698.1412844-.308111.25623853-.486291.34454128-.178181.08798165-.41155.16857798-.699478.24211009.382852.03628441.69254.09022936.927801.16183486.235577.07128441.432364.17756881.591938.31917432.158313.1409633.278151.31307339.360146.51568807.081679.20261468.122991.42866972.122991.67816514 0 .4919266-.146959.92444954-.439617 1.29885321-.292657.37376147-.670148.65055046-1.13121.82972477-.343431.13325688-.750566.19972477-1.222035.19972477l-1.422291-.03981651c-.154213 0-.44624.01316513-.878604.03981651z"/><path d="m111.019786 1.29227064h.076634c.144436 0 .24756-.02665137.309372-.07995413.061811-.05298165.092717-.12747706.092717-.22380734 0-.09761467-.02586-.17178899-.078211-.22348623-.05235-.05169725-.13876-.07738532-.258913-.07738532h-.056135c-.033744 0-.053297.00385321-.06055.01123853-.006623.00738532-.012615.01701835-.01766.02889908-.004731.01188073-.007254.04077982-.007254.08733945zm-.385374.70449542v-.05266056c.071272-.0012844.1129-.00417431.125199-.00931192.012299-.00513762.02176-.01509175.029329-.02986239.006938-.01444954.010722-.05073394.010722-.10853211v-.97293578c0-.05876146-.003784-.09568807-.010722-.11110091-.007569-.01541285-.020499-.02504588-.03879-.02954129-.011668-.00353211-.050143-.00577982-.115738-.00706422v-.05426605h.575854c.136237 0 .240623.01444954.313156.04334862.072219.02889908.123623.0703211.154844.12426606.031536.05362385.046674.11142201.046674.17371559 0 .08830275-.030275.16536697-.091771.23183486-.060865.06614679-.157051.11045872-.288243.13325688.043205.01220184.075688.02633028.096817.04238533.033113.02472477.063704.05908256.091456.10211009.028067.04270642.062442.11206422.104385.20775229.041628.09568807.072218.15798165.092402.18688073.019868.02889909.040682.04880734.061811.06036698.015453.00770642.040997.01348624.076633.01669724v.05266056h-.150113c-.06118 0-.106908-.00674312-.137498-.02022936-.030591-.01348624-.055189-.03628441-.074111-.0680734-.031221-.04977064-.076633-.15059633-.136868-.30183486-.030905-.08059633-.058342-.13582569-.081364-.16568807-.023652-.03018349-.04825-.05041285-.073795-.06133028-.025544-.01091743-.064965-.01605504-.118261-.01605504h-.076634v.43284403c0 .05908257.003785.09568808.010723.11045872.007253.01477064.020498.02472477.039105.03050459.011037.00353211.044151.00545871.098709.00674311v.05266056zm-.500168-.64188074c0 .18912844.046674.37376147.140337.55454129.093348.18045871.227062.32142201.401459.4225688.174711.10146789.356361.15220184.545579.15220184.164305 0 .32041-.03692661.468316-.11045872.109115-.05426605.20877-.12715596.29928-.21899082.090509-.09183487.167143-.20646789.227693-.34486239.06118-.13775229.09177-.28963303.09177-.455 0-.12233945-.018921-.24178899-.056765-.35899082-.037844-.11688074-.090825-.22188074-.159259-.3146789-.067803-.09279817-.146013-.1727523-.232423-.23954129-.086725-.06678899-.185119-.11944954-.295181-.15798165s-.224223-.05747706-.343431-.05747706c-.189218 0-.370868.05009174-.545579.15091743-.174397.10082569-.308111.24146789-.401459.42288991-.093663.18077981-.140337.36573394-.140337.55486238zm-.15169 0c0-.17756881.03469-.34550459.104071-.50316514.069695-.15798165.153897-.28642201.253552-.3853211.09934-.09922018.208771-.17885321.327663-.23857798.176604-.08958715.361092-.13422018.553779-.13422018.135291 0 .265537.02183486.391051.06550459.124884.04334862.236839.10211009.335863.1756422s.187326.16183486.264906.26587156c.077894.10339449.13876.22059633.181965.3519266.043204.13165138.064964.26555046.064964.40233945 0 .18366973-.035005.35224771-.105016.50605505-.07001.15412844-.15642.2822477-.259229.3856422-.102808.10275229-.215709.18495413-.339331.2459633-.169981.08252294-.348793.12394496-.535173.12394496-.215709 0-.422903-.05651377-.621267-.16954129-.198364-.11334862-.351-.27068807-.457593-.47233945-.106908-.20133027-.160205-.40811926-.160205-.61972477z"/><path d="m11.6313453 12.1664174c-.2585984.1101376-.43331.3140367-.5247655.610734-.0924016.2970183-.1381294.7722477-.1381294 1.425688v9.5456881 1.5528441c0 1.1627064-.0268059 2.1725688-.0804178 3.029266-.0545579.8570184-.1737655 1.5952294-.3569919 2.2143119-.2333693.8149542-.64334232 1.5425688-1.23118059 2.1834863-.58720755.6399541-1.32925876 1.145367-2.22457682 1.514633-.89626415.3686239-1.9025903.553578-3.0192938.553578-1.0835903 0-1.94516442-.1656881-2.58787601-.4967431-.8417062-.4244954-1.26240162-1.0477523-1.26240162-1.870734 0-.534633.18764151-.9652293.56260916-1.291789.37496766-.3268807.87135041-.49 1.48757143-.49.60045283 0 1.07507547.1499542 1.42544475.451789.34942318.3008716.5247655.7272936.5247655 1.278945 0 .3907798-.11290027.7385321-.33743936 1.043578-.22548517.3053669-.54999461.5304587-.97542048.674633.16714285.1191284.47525337.1785321.92527763.1785321.62505121 0 1.16306199-.1698624 1.61277088-.508945.45002426-.3400458.7745337-.7937614.9744744-1.3624311.15042857-.4495413.26112129-.9247707.33144744-1.425367.07064151-.5009175.11479245-1.0943119.13150674-1.781789.01671428-.6874771.02491374-1.7140367.02491374-3.0806422v-11.9128441c0-.6534403-.04793531-1.1286697-.14380593-1.425688-.09618598-.2966973-.2749973-.5005964-.53738005-.610734-.26238275-.1104587-.67740162-.1785321-1.24411051-.2042202v-.5214678c.85022102.051055 2.1504663.076422 3.90042048.076422 1.72472502 0 3.06281402-.025367 4.01269002-.076422v.5214678c-.5749083.0256881-.9921348.0937615-1.2501024.2042202"/><path d="m20.3323609 12.707344c-.7130377.776101-1.2630323 1.8578899-1.6502992 3.245367-.3875822 1.3874771-.581531 2.9762844-.581531 4.7670642 0 1.807156.216655 3.398211.6502804 4.772523.4333099 1.3749541 1.0205175 2.4355504 1.7625687 3.1824312.7414205.7465596 1.5667277 1.1196789 2.4752911 1.1196789.9413612 0 1.7682453-.38789 2.481283-1.1646331.7120917-.776422 1.2624016-1.858211 1.6496685-3.245688.3875822-1.3868349.581531-2.9759633.581531-4.7667432 0-1.7981651-.216655-3.3872935-.6496496-4.7661009-.4339407-1.3791284-1.0233558-2.4416514-1.7691914-3.1888532-.7461509-.7462385-1.5689353-1.12-2.4686685-1.12-.9419919 0-1.768876.388211-2.481283 1.1649541m7.3252723-.5153669c1.3626873.7465596 2.4185256 1.8305963 3.1687762 3.2514679.7499353 1.4215137 1.124903 3.1124311 1.124903 5.07211 0 1.9182569-.3860054 3.6152753-1.156124 5.0913762-.77138 1.476422-1.8439326 2.6221101-3.2189191 3.436422-1.3753019.8149541-2.9376146 1.2221101-4.6878841 1.2221101-1.8079812 0-3.3939461-.3731193-4.7566334-1.1203211-1.3620567-.7459174-2.4166335-1.8302752-3.1621537-3.2521101-.7464663-1.4208715-1.1192264-3.1114679-1.1192264-5.0714679 0-1.9179358.3837978-3.6149541 1.1504474-5.0913761.7666496-1.4767431 1.83731-2.6221101 3.2122965-3.436422 1.3749866-.8149542 2.9420297-1.2224312 4.7001833-1.2224312 1.8000971 0 3.3816469.3737614 4.7443343 1.1206422"/><path d="m48.2398884 12.4015917c-.2623827.2164221-.4418248.547156-.5370647.9928441-.0958706.445367-.1438059 1.113578-.1438059 2.004633v6.9113762c0 2.4862844-.3503693 4.327477-1.0501617 5.523899-.4667386.7722477-1.1334178 1.3704588-2.0003531 1.7946331s-1.9331806.636422-3.1999973.636422c-1.9666092 0-3.5043235-.4370184-4.6125122-1.3110551-.5414798-.4411926-.9564986-.954633-1.2437951-1.54-.2876119-.5853669-.4831375-1.2705963-.5878383-2.055688-.1040701-.7850918-.1564205-1.775367-.1564205-2.971789v-8.1842202c0-.6534404-.0479353-1.1283486-.1428598-1.425367-.096186-.2970183-.275628-.5009174-.5380108-.6107339-.2623827-.1104587-.6774016-.1785321-1.2434798-.2042202v-.5214679c.8751348.051055 2.2037628.0761009 3.9871456.0761009 1.7666684 0 3.125256-.0250459 4.0757628-.0761009v.5214679c-.6171671.0256881-1.0646685.0937615-1.3440809.2042202-.2797278.1098165-.4708383.3137156-.5755391.6107339-.1037547.2970184-.1561051.7719266-.1561051 1.425367v9.8260092c0 1.2221101.1081698 2.2165596.3254555 2.984633.216655.7677523.5809003 1.3495871 1.0939973 1.7438991.5124663.3949541 1.2185661.591789 2.1182992.591789 1.7001267 0 2.9022938-.585367 3.6065014-1.756101.7042075-1.171055 1.0567843-2.8346789 1.0567843-4.9895871v-6.8863303c0-1.0088991-.0611806-1.7580275-.1819649-2.2461009-.120469-.4877523-.3516307-.8419266-.6931698-1.062844-.3424852-.2205964-.8792345-.368945-1.6127709-.4456881v-.5214679c.6417655.051055 1.562628.0761009 2.7625876.0761009.949876 0 1.6919272-.0250459 2.2252075-.0761009v.5214679c-.5588248.0767431-.9687978.222844-1.2318113.439266"/><path d="m60.1408698 20.0576972c.5370647-.3731192.9076173-.8743578 1.1119731-1.50211.2040404-.6274312.3065336-1.3826606.3065336-2.265367 0-1.425367-.2485067-2.5029817-.7442587-3.2328441-.4954367-.7295412-1.3059218-1.0949541-2.4308248-1.0949541-.4585391 0-.798186.0619725-1.0189407.184633-.2210701.1233028-.3708679.3397248-.4500243.6495872-.0791563.3098624-.1185768.7786697-.1185768 1.406422v6.4143119h1.0996739c.9587062 0 1.7064339-.1862385 2.2444447-.5596789m6.5248787 9.8513762c-.5288652.2372936-1.1649542.356422-1.9060593.356422-.9836199 0-1.7622534-.2122477-2.3377924-.6361009-.5752238-.4251376-.9505068-1.1540367-1.1245876-2.1899083l-.4632696-2.5967431c-.1491671-.8393578-.3055876-1.5159174-.4686307-2.0296789-.162097-.5134403-.396097-.9205963-.6997925-1.2221101-.3046415-.3005504-.7067304-.4514679-1.2065822-.4514679h-1.662283v5.9949542c0 .6527981.0454124 1.1289908.1374987 1.425688.0917709.2963762.2667978.5002753.5247655.610734.2579676.1107798.675194.1785321 1.2501024.2038991v.521789c-.9085634-.0516973-2.1955634-.0767432-3.8628922-.0767432-1.8250108 0-3.1709838.0250459-4.0372884.0767432v-.521789c.5663935-.025367.9792048-.0931193 1.2378032-.2038991.2579677-.1104587.4352022-.3143578.5313882-.610734.0949245-.2966972.1431752-.7728899.1431752-1.425688v-12.9313762c0-.6537614-.0482507-1.1286697-.1431752-1.4256881-.096186-.2970183-.2734205-.5005963-.5313882-.6107339-.2585984-.1104587-.6714097-.1785321-1.2378032-.2042202v-.5214679c.8663046.0510551 2.1621348.0761009 3.8874906.0761009.6833935 0 1.442159-.0080275 2.275035-.0250458.8335067-.0170184 1.4128302-.0256881 1.737655-.0256881 2.350407 0 4.1205445.3927064 5.3129353 1.1774771 1.1917601.7844495 1.7881132 1.902844 1.7881132 3.3532568 0 .7725689-.1800728 1.5066056-.5380108 2.2021101-.3585687.6961468-.9669056 1.3007799-1.8253261 1.8132569-.8581051.5140826-1.9918383.8550918-3.3996227 1.0255963h.0245984c1.0337628.0931193 1.8817763.2710092 2.5440405.534312.6622641.2633027 1.1813531.63 1.5563207 1.101055.3755984.4704129.6376658 1.0708716.7871483 1.8010551l.588469 2.6853669c.1406522.7044955.3014878 1.1922477.4806145 1.4638991.1788113.2710092.4307871.4068349.7556119.4068349.2008868-.0080275.375283-.0587615.5253962-.1522019.1501132-.0934403.31631-.24211.5001671-.445688l.3497386.3178899c-.4667386.534633-.9643828.9209174-1.4935634 1.1585321"/><path d="m84.1534957 12.4015917c-.2623828.2164221-.4418248.547156-.5370647.9928441-.096186.445367-.1438059 1.113578-.1438059 2.004633v14.5484404c-.1251995-.009312-.3339704-.0131652-.6253666-.0131652-.3002264 0-.5288652.0038532-.6871779.0131652l-11.1134232-14.3320184v10.0045413c0 1.0262385.054558 1.7795413.1630431 2.2592661.1081699.4790825.3314475.8290825.6685715 1.0496789.3374393.2205963.8893261.369266 1.6562911.4453669v.521789c-.6584798-.051055-1.5793423-.0757798-2.7625876-.0757798-.9419919 0-1.6837278.0247248-2.2252076.0757798v-.521789c.5578787-.0761009.9687979-.2222018 1.2311806-.4389449.2630135-.2167431.4415095-.547156.5376954-.9928441.0958707-.4453669.143806-1.1135779.143806-2.004633v-11.7352752c0-.6534404-.0479353-1.1283486-.143806-1.425367-.0961859-.2970183-.2731051-.5009174-.5310727-.6107339-.2589138-.1104587-.6704637-.1785321-1.2378033-.2042202v-.5214679c.5414798.051055 1.2832157.0761009 2.2252076.0761009.8584205 0 1.5916415-.0250459 2.1999784-.0761009l9.9134636 12.4349541v-8.1588532c0-1.0262385-.0545579-1.7795413-.1630431-2.2589449-.1081698-.4790826-.3314474-.8290826-.6685714-1.05-.3377548-.2205964-.8896415-.368945-1.6562911-.4456881v-.5214679c.657849.051055 1.5793423.0761009 2.7625876.0761009.9495606 0 1.6919272-.0250459 2.2252075-.0761009v.5214679c-.5588248.0767431-.9687978.222844-1.2318113.439266"/><path d="m91.9045407 15.3482706-2.649372 7.0385322h5.1874205zm9.7002773 13.6127523c.283197.2588074.56734.3965597.850221.413578v.521789c-1.024617-.0513761-2.321078-.076422-3.8874902-.076422-1.7499542 0-3.0457844.0250459-3.8874906.076422v-.521789c.6411348-.025367 1.1018814-.1062844 1.3809785-.2421101.2787816-.1358257.4184878-.3731192.4184878-.7125229 0-.2629817-.1037547-.6749541-.3118949-1.2349541l-1.5373989-4.2764221h-5.575318l-.6751941 1.7946331c-.4673693 1.221789-.6997925 2.1895871-.6997925 2.9021101 0 .6447706.1873262 1.094633.5626092 1.349266.3746523.2543119.9410458.394633 1.699496.42v.521789c-1.1501321-.0513761-2.2084933-.076422-3.1750836-.076422-.7830485 0-1.4333288.0250459-1.9498949.076422v-.521789c.8495903-.1444954 1.5828114-1.0567431 2.1999785-2.736422l5.8373854-15.2484404c.275628.025367.571124.0385321.8880647.0385321.3330243 0 .6285202-.0131651.8877493-.0385321l6.2123533 16.3170643c.225485.5776605.478722.9950917.762234 1.2542201z"/><path d="m109.349335 12.1664174c-.280043.1101376-.470838.3140367-.574908.610734-.104701.2970183-.156105.7722477-.156105 1.425688v13.2367432c0 .56.03942.9655504.118261 1.215688.079787.2504588.228954.4203211.449709.5092661.221701.088945.569232.133578 1.043855.133578h1.250102c.77548 0 1.485679-.241789 2.13186-.7256881.645234-.483578 1.18703-1.1643119 1.624755-2.042844.437725-.8775688.739213-1.8938532.906355-3.0485321h.587208c-.049512.5943578-.074741 1.3579357-.074741 2.2913761 0 1.6719725.058342 3.0462844.175027 4.1238991-1.158332-.0510551-3.112326-.0761009-5.86293-.0761009-3.716564 0-6.495865.0250458-8.337591.0761009v-.521789c.566079-.025367.979205-.0931193 1.237804-.203578.257967-.1107798.435202-.3140367.531388-.611055.094924-.2966973.143175-.7725688.143175-1.4256881v-12.9313762c0-.6534403-.048251-1.1286697-.143175-1.425688-.096186-.2966973-.273421-.5005964-.531388-.610734-.258599-.1104587-.671725-.1785321-1.237804-.2042202v-.5214678c.858421.051055 2.204709.076422 4.037289.076422 1.73324 0 3.075744-.025367 4.02562-.076422v.5214678c-.616852.0256881-1.064669.0937615-1.343766.2042202"/></g></svg>