<svg height="68" viewBox="0 0 224 68" width="224" xmlns="http://www.w3.org/2000/svg"><g fill-rule="evenodd" transform=""><path d="m12.2214038 13.6456037c.1002264-.6201101.16-1.6245138.1781132-3.0144587h.6291321c.0313962.9445137.0833207 1.5022385.1551698 1.6731743.071849.1709357.2457358.3537247.5216603.5477431.2759246.1940183.645434.3668257 1.1091321.5190459.4636981.1515963.9116981.2277064 1.344.2277064.6327547 0 1.216-.1503486 1.7485283-.4516697s.9213585-.6968441 1.165283-1.1853211c.2439246-.4897248.3670944-1.0131377.3670944-1.5702386 0-.42609172-.0609812-.79416512-.1835472-1.10484402-.1219623-.31005504-.3073207-.56084403-.5578868-.75111926-.250566-.19027523-.5603019-.32502752-.9292075-.40238532-.2312453-.03805505-.6937359-.10480734-1.3880755-.19776147s-1.2860377-.19401835-1.7738868-.30381651c-.6514717-.20649542-1.1302641-.44792661-1.4369811-.72616514-.306717-.27761468-.5554717-.64194496-.7468679-1.09423853-.1901887-.45104588-.2861887-.93889909-.2861887-1.46168808 0-.76110091.1926037-1.47915596.5772075-2.15416514.3852076-.67438532.9545661-1.19842201 1.7086793-1.57273394.7541132-.37493578 1.5716226-.56209174 2.4543396-.56209174.5313207 0 1.1121509.07299082 1.7406792.21834862.6291321.14660551 1.2153963.35809174 1.76.63695413-.0875471.40675229-.1503396.78605504-.1877736 1.13853211-.0374339.35185321-.0658113.87027523-.0845283 1.55526605h-.6285283c-.0187169-.99566972-.0470943-1.53842201-.085132-1.62888073-.1563774-.23269725-.3695095-.44231193-.6393963-.6307156-.6448301-.37493578-1.3192452-.56209174-2.0208301-.56209174-.9092831 0-1.6344151.28572477-2.1766038.85592661-.5421887.57020183-.8126793 1.30946789-.8126793 2.21842201 0 .54899083.0966038.97445872.2904151 1.27515597.1944151.30069725.5421887.54088073 1.0433208.72242202.3435472.12289908.9068679.23768807 1.6893585.34686238.7818868.10792661 1.485283.2239633 2.1107924.34686239.5880755.18091743 1.0227925.39614679 1.3047547.64506422.2813585.24891743.5126038.57581651.6943397.98007339.181132.40488074.2723019.87838532.2723019 1.42176147 0 1.28763305-.5162265 2.40994495-1.5486793 3.36693575-1.0324528.9576147-2.3686038 1.4361101-4.007849 1.4361101-1.2389434 0-2.3619623-.2520367-3.3696604-.7579816"/><path d="m22.4519245 14.1226018v-.6207339c.6569057-.0062385 1.0892076-.0580184 1.2950944-.1547156.0881509-.0393028.1503396-.1004404.1877736-.1840367.0627924-.1291376.1062641-.4678899.1316226-1.0168807.037434-.8515597.0561509-1.5883303.0561509-2.20781655v-4.94777982c0-.87776147-.0090566-1.73680734-.0277735-2.57651376-.0193208-.61262385-.0646038-.97508257-.1364529-1.08862385-.071849-.11229358-.1877736-.19651376-.3471698-.2520367-.1593962-.05427523-.6116226-.08858716-1.3560755-.10106422v-.62073394l2.674717.05801834 2.834717-.04866055c1.357283-.01933945 2.3432453-.02869724 2.9560755-.02869724.6194717 0 1.205132.03493578 1.7551698.10605504-.0996227.36869725-.1684528.68873395-.2064906.96011009-.0120755.05801835-.0688302.73115597-.1690566 2.01754129h-.5910943c.0060377-.65941285-.0344151-1.26080734-.1219623-1.80418349-.3441509-.14847706-.722717-.24829358-1.1356981-.30007339-.7009811-.09108257-1.4013585-.136-2.1023396-.136-.1497359 0-.4848302.01372477-1.0040755.03930275s-.8917736.0480367-1.1169811.06737615c-.0253585.71493578-.0440755 1.38495412-.056151 2.01005504l-.0374339 3.26587156c.7317736.04491743 1.4043773.06737615 2.0172075.06737615.7450566 0 1.3802264-.03493578 1.9055094-.1066789.2004529-.02557798.3290567-.07798165.3846038-.15533945.0567547-.0773578.1068679-.34187156.1503396-.79478899l.0567548-.67875229h.5627169v.18403669l-.0464905 2.01691743.0464905 2.26022019h-.6569056l-.0283774-.65941285c-.0126792-.47911926-.0543396-.77607339-.1261887-.89273394-.0724528-.1160367-.2083018-.19713762-.4087547-.24205505-.3568302-.0773578-1.0481509-.11666055-2.0739622-.11666055-.4196227 0-1.0137359.01622019-1.7829434.04866055-.032.64631193-.0470944 1.60642202-.0470944 2.88033026 0 1.1959266.0150944 2.1042569.0470944 2.7249908.8990188.0717432 1.9079245.1066789 3.0267169.1066789.7933585 0 1.3584906-.0255779 1.696-.0773578.3375095-.0524036.6502642-.1391192.9376604-.2620183.0748679-.2002569.1491321-.471633.2246038-.8147523.1376604-.5751927.2282264-1.0081468.2716981-1.2994862h.6285283c-.1624151 1.3057247-.2439245 2.3881101-.2439245 3.2471559-.5379623.0854679-1.1918491.1278899-1.9610566.1278899l-5.6036227-.068c-.0815094 0-.9008301.0230826-2.4591698.068"/><path d="m37.4275019 8.68216514h4.7311698l-2.3366038-5.83677064zm-4.3731321 5.44062386v-.6600367c.4956981-.0062385.8036227-.0274495.9261887-.0630092.1219623-.0349358.2348679-.1029358.338717-.2033761.1026415-.1004404.2517736-.3599633.4461887-.7810642.1123018-.238312.519849-1.1466422 1.2214339-2.72499087l2.3498868-5.4693211c.2566038-.6013945.8048302-1.93955964 1.6446793-4.01511927h.6007547l4.013283 9.72711927c.6514717 1.57772477 1.0837736 2.56653207 1.2969056 2.96766977.1195472.2264587.2493585.3749357.3906416.4466788.1406792.0711193.4588679.1091744.9539622.1154129v.6600367c-.9781132-.0648807-1.6609811-.0973211-2.0498113-.0973211l-3.0243019.0973211v-.6600367c.7003774-.0124771 1.1260377-.0349358 1.2763774-.0673762.1503396-.0324403.2517736-.0792293.3049056-.1409908.0531321-.0617614.0796981-.1372477.0796981-.2277064 0-.1422385-.0440754-.3262752-.1316226-.5527339l-1.1526038-2.96766977h-5.4351698l-1.0197736 2.49229357c-.1817358.4460551-.2729056.7729541-.2729056.9800734 0 .0898349.0253585.1640734.0754717.2227156.0688302.0842202.1756981.1422385.32.174055.2312453.0524037.6381887.081101 1.2196226.0873395v.6600367c-1.0578113-.0586422-1.8499623-.0879633-2.3770566-.0879633-.6086038 0-1.2733585.0293211-1.9954717.0879633z"/><path d="m56.411834 1.30198165h-4.6158491c-.0627924.62011009-.0935849 1.45669725-.0935849 2.50976147v5.66833027c0 .87900921.0090566 1.73493581.0277736 2.56902751.0193207.6132477.0646038.977578.1364528 1.0942385.0718491.1166606.1877736.2021285.3471698.2570276.16.0542752.6116227.0885871 1.3560755.101688v.620734c-1.12-.0517798-1.9616604-.0773578-2.5243774-.0773578-.2439245 0-1.2208301.025578-2.9289056.0773578v-.620734c.7408302-.0131009 1.1924528-.0474128 1.3536604-.101688.1624151-.0548991.2716981-.1310092.3272452-.2277064.0815095-.1297615.1310189-.4429358.1497359-.9401468 0-.1353762.0150943-1.0530643.0470943-2.75244041v-5.64899082c0-.27137615-.0066415-.56833028-.0193207-.89148624l-.056151-1.63761468h-1.3983396c-.8072453 0-1.4484528.03244037-1.9242264.09669725-.1503396.0199633-.2469434.06176147-.2910189.12601835-.0688302.11042202-.1316226.46289908-.1871698 1.05743119l-.1032453.97944954h-.5826415c-.0060377-1.54466055-.0374339-2.61456881-.0935849-3.20972477.6822642.02557798 1.752151.0573945 3.2102642.09669725 1.1821886.02557798 1.9707169.0386789 2.3649811.0386789.4256604 0 4.7516981-.02620184 4.7516981-.02620184"/><path d="m55.6656906.46121468s4.4975094.02620183 4.8917736.02620183c.4250566 0 1.410415-.01933945 2.9560754-.0586422 1.12-.02557798 1.9369057-.05177981 2.4501132-.0773578-.0754717.72429358-.1255849 1.79420184-.1503396 3.21034863h-.6007547l-.0748679-.93078899c-.050717-.56333945-.0845283-.8827523-.1032453-.96073395-.0193208-.07798165-.0458868-.13163303-.0796981-.16469725-.0350189-.03244036-.0863397-.05801834-.1551698-.07735779-.088151-.01933945-.4009057-.04491744-.938868-.07798166-.5379622-.03181651-.9630188-.04803669-1.2763773-.04803669h-1.1447547c-.0627925.62011009-.0941887 1.45669725-.0941887 2.50976147v5.66833027c0 .87838535.0096604 1.73431195.0283773 2.56840365.018717.6138716.064.9782019.1364529 1.0948624.0712453.1166606.1871698.2015046.346566.2564037.16.0548991.6122264.089211 1.3566793.101688v.620734c-1.12-.0517798-1.9622642-.0773578-2.5249812-.0773578-.2439245 0-1.2202264.025578-2.9283019.0773578v-.620734c.7408302-.012477 1.1918491-.0467889 1.3536604-.101688s.2710943-.1310092.3272453-.2270826c.0809057-.1297615.1310189-.4429358.1491321-.9407706 0-.1353762.0156981-1.0524404.0470943-2.75181655v-5.64961468c0-.27075229-.0060377-.56833027-.018717-.89086238l-.0561509-1.63761468h-4.8688302"/><path d="m67.5498264 14.1226018v-.5046972c.384-.1865321.6291321-.335633.7341887-.4448074.0621887-.0586422.1056604-.1328807.1304151-.2239633.0549434-.1802935.0923773-.5683302.1110943-1.1622385.0313963-.8852477.0470944-1.4117798.0470944-1.5795963v-5.2135413c0-.87838532-.0090566-1.73805505-.0283774-2.57776147-.018717-.61324771-.064-.97695413-.135849-1.09049541-.0718491-.11229358-.1877736-.19651376-.3471699-.25141285-.1593962-.05489908-.6122264-.08921101-1.3560754-.10168807v-.62073394c1.5263396.04491743 2.4712453.068 2.8341132.068.4003019 0 1.2981132-.02308257 2.6940377-.068v.62073394c-.7450566.01247706-1.1966792.04678899-1.3566792.10168807-.1593963.05489909-.2704906.13038532-.3332831.22770643-.0748679.12913761-.1219622.44231192-.1406792.93952293-.0078491.12913762-.0229434 1.04682569-.0470943 2.75244037v6.5117798c0 .6787523.0156981 1.2302385.0470943 1.6569541.7136604.0449175 1.4206792.0673762 2.1216604.0673762 1.7642264 0 3.0001509-.1160367 3.7071698-.3481101.0815094-.1946422.1533585-.4173578.2155472-.6700184l.3755471-1.6095412h.6291321c-.1382641.9632293-.2723019 2.094899-.4039245 3.3943853-.2566038.0517798-.4594717.0842202-.6098113.0966972-.325434.0193395-.8259623.0293211-1.5015849.0293211l-5.5565283-.068c-.6007548 0-1.2111699.0230826-1.8300378.068"/><path d="m77.421283 14.1226018v-.6207339c.6569057-.0062385 1.0892076-.0580184 1.2956981-.1547156.0875472-.0393028.1497359-.1004404.1871698-.1840367.0627925-.1291376.106868-.4678899.1316227-1.0168807.0374339-.8515597.0561509-1.5883303.0561509-2.20781655v-4.94777982c0-.87776147-.0096603-1.73680734-.0283773-2.57651376-.018717-.61262385-.064-.97508257-.1358491-1.08862385-.071849-.11229358-.1877736-.19651376-.3471698-.2520367-.1593962-.05427523-.6116226-.08858716-1.3566792-.10106422v-.62073394l2.6753207.05801834 2.834717-.04866055c1.357283-.01933945 2.3426415-.02869724 2.9560755-.02869724.6194717 0 1.2045283.03493578 1.7551698.10605504-.0996227.36869725-.1690566.68873395-.2064906.96011009-.0120755.05801835-.0688302.73115597-.1690566 2.01754129h-.5910943c.0060377-.65941285-.0344151-1.26080734-.1219623-1.80418349-.3441509-.14847706-.722717-.24829358-1.1356981-.30007339-.7009811-.09108257-1.4013585-.136-2.1023396-.136-.1497359 0-.4848302.01372477-1.0046793.03930275-.5186415.02557798-.8917736.0480367-1.1163773.06737615-.0253585.71493578-.0440755 1.38495412-.056151 2.01005504l-.0380377 3.26587156c.7323773.04491743 1.4049811.06737615 2.0184151.06737615.7444528 0 1.3796226-.03493578 1.9049056-.1066789.2004529-.02557798.3290566-.07798165.3846038-.15533945.0567547-.0773578.1068679-.34187156.1503396-.79478899l.0567548-.67875229h.5633207v.18403669l-.0470943 2.01691743.0470943 2.26022019h-.6575094l-.0283774-.65941285c-.0126792-.47911926-.0543396-.77607339-.1261887-.89273394-.0724528-.1160367-.2083019-.19713762-.4087547-.24205505-.3562264-.0773578-1.0475472-.11666055-2.0739622-.11666055-.4196227 0-1.0137359.01622019-1.7835472.04866055-.0313962.64631193-.0464906 1.60642202-.0464906 2.88033026 0 1.1959266.0150944 2.1042569.0464906 2.7249908.8996226.0717432 1.9091321.1066789 3.0273207.1066789.7933585 0 1.3584906-.0255779 1.696-.0773578.3375095-.0524036.6502642-.1391192.9376604-.2620183.0742642-.2002569.1497359-.471633.2246038-.8147523.1376604-.5751927.2282264-1.0081468.2716981-1.2994862h.6291321c-.1630189 1.3057247-.2445283 2.3881101-.2445283 3.2471559-.5379623.0854679-1.1918491.1278899-1.9610566.1278899l-5.6036227-.068c-.0815094 0-.9008302.0230826-2.4591698.068"/><path d="m95.9634717 13.6456037c.1002264-.6201101.16-1.6245138.1781132-3.0144587h.6291321c.0313962.9445137.0833207 1.5022385.1551698 1.6731743.071849.1709357.2457358.3537247.5216604.5477431.2759245.1940183.6454339.3668257 1.109132.5190459.4636982.1515963.9116982.2277064 1.344.2277064.6327548 0 1.2159998-.1503486 1.7485288-.4516697.532528-.3013211.920754-.6968441 1.165283-1.1853211.243924-.4897248.36649-1.0131377.36649-1.5702386 0-.42609172-.060377-.79416512-.182943-1.10484402-.121963-.31005504-.307925-.56084403-.557887-.75111926-.250566-.19027523-.560302-.32502752-.929208-.40238532-.231245-.03805505-.693735-.10480734-1.388679-.19776147-.6937357-.09295413-1.2854338-.19401835-1.7738866-.30381651-.650868-.20649542-1.1296604-.44792661-1.4363774-.72616514-.306717-.27761468-.5554717-.64194496-.7468679-1.09423853-.1907925-.45104588-.2861887-.93889909-.2861887-1.46168808 0-.76110091.1926038-1.47915596.5772075-2.15416514.3852076-.67438532.9539623-1.19842201 1.7086793-1.57273394.7535094-.37493578 1.5716226-.56209174 2.4537358-.56209174.531925 0 1.112151.07299082 1.741283.21834862.629132.14660551 1.215396.35809174 1.76.63695413-.087547.40675229-.15034.78605504-.187774 1.13853211-.038037.35185321-.065811.87027523-.084528 1.55526605h-.629132c-.018717-.99566972-.04649-1.53842201-.084528-1.62888073-.156378-.23269725-.36951-.44231193-.639396-.6307156-.644831-.37493578-1.319246-.56209174-2.020831-.56209174-.9092826 0-1.6344147.28572477-2.1766034.85592661-.5421887.57020183-.813283 1.30946789-.813283 2.21842201 0 .54899083.0972075.97445872.2910189 1.27515597.194415.30069725.5421886.54088073 1.0433207.72242202.3435472.12289908.9068679.23768807 1.6887548.34686238.781887.10792661 1.485887.2239633 2.111396.34686239.588076.18091743 1.022793.39614679 1.304755.64506422.281358.24891743.512604.57581651.694339.98007339.181133.40488074.272302.87838532.272302 1.42176147 0 1.28763305-.516226 2.40994495-1.548679 3.36693575-1.033056.9576147-2.368604 1.4361101-4.0078489 1.4361101-1.2389434 0-2.3619623-.2520367-3.3696604-.7579816"/><path d="m105.815426 3.56157798h-.582037c-.006038-1.5452844-.037434-2.61456881-.093585-3.21034862.68166.02620183 1.752151.05801835 3.20966.0973211 1.182793.02557798 1.970717.0386789 2.364981.0386789.425661 0 1.411623-.01933945 2.95668-.05801835 1.120603-.02557798 1.936905-.05177982 2.449509-.07798165-.075472.72491743-.124981 1.79420183-.149736 3.21034862h-.600755l-.074868-.93078899c-.050113-.56333945-.083924-.88275229-.103245-.96011009-.019321-.07798165-.045887-.13225688-.080302-.1653211-.033811-.03244037-.085736-.05801835-.153962-.0773578-.088151-.01933945-.400302-.04491743-.939472-.07798165-.537962-.03181652-.963019-.0480367-1.276377-.0480367h-1.144755c-.062792.62011009-.093585 1.45669725-.093585 2.50976147v5.66833027c0 .87900921.009057 1.73493581.027774 2.56840371.019321.6138715.063396.9782018.135849 1.0948623.071849.1166606.187774.2021285.347774.2570276.158792.0542752.611018.0885871 1.356679.101688v.620734c-1.121208-.0517798-1.962264-.0773578-2.525585-.0773578-.243925 0-1.219623.025578-2.928302.0773578v-.620734c.74083-.0131009 1.191849-.0474128 1.354264-.101688.161812-.0548991.270491-.1310092.326642-.2277064.080905-.1297615.130415-.4429358.149132-.9407707 0-.1347523.015698-1.0524404.047094-2.75181651v-5.64899082c0-.27137615-.006038-.56833028-.018717-.89148624l-.056151-1.63761468h-1.398943c-.807245 0-1.448453.03244037-1.924227.09669725-.149735.01933945-.246943.06176147-.290415.12601835-.069434.11042202-.131622.46289908-.187773 1.05743119z"/><path d="m116.796558.97233762v-.62073395c1.019774.04491743 1.967699.068 2.843774.068.889359 0 1.771472-.02308257 2.646943-.068v.62073395c-.734188.01310091-1.182792.04678899-1.345207.10168807-.160604.05489908-.269887.13038532-.326642.22770642-.080905.12913761-.131018.44231193-.148528.93952294-.008453.12913761-.023547 1.04682568-.047094 2.75244036v3.58528441c0 1.38869724.086943 2.30513758.257811 2.74682568.172076.4429358.445585.8097615.821132 1.0998532.288604.2202202.675623.3961468 1.164076.5284037.487245.1322569 1.032452.1983853 1.633207.1983853.700981 0 1.322868-.0879633 1.868679-.2657615.543397-.178422.952151-.3942752 1.223849-.6494312.272302-.2557798.475774-.5415045.610416-.8577981.133434-.3162936.231849-.7504954.290415-1.3032294.059773-.55273392.089962-1.25207337.089962-2.09864218v-2.98388991c0-.87838532-.016302-1.73805504-.047698-2.57838532-.012679-.6132477-.053132-.97633027-.126189-1.08987156-.071849-.11229358-.18717-.19651376-.350792-.25141284-.161208-.05489908-.608604-.08858716-1.344-.10168807v-.62073395c1.030641.04491743 1.783547.068 2.257509.068.431094 0 .74083-.00499083 1.864453-.04990826l.467924.60264221c-.74083.01310091-1.190641.04678899-1.349433.10168807-.158793.05489908-.26868.13038532-.332076.22770642-.074264.12913761-.120755.44231193-.139472.94014679-.006037.12913761-.018113 1.04682569-.037434 2.75181651v3.24653211c0 1.59581652-.106868 2.71001838-.324226 3.34385318-.215547.6325872-.611623 1.1915597-1.187623 1.6756698-.43049.3624587-.985358.6438165-1.664.8434495-.679245.2002569-1.433358.3000734-2.258113.3000734-.963019 0-1.799245-.1172844-2.506264-.3531009-.707623-.2358165-1.244981-.5458716-1.614491-.9301652-.368905-.3849174-.62249-.7766972-.760754-1.1778348-.175095-.5302753-.262038-1.4173945-.262038-2.66447709v-4.284c0-.87838532-.00966-1.73805504-.028377-2.57776147-.01751-.6132477-.064-.97695412-.135849-1.09049541-.07185-.11229358-.187774-.19651376-.347774-.25141284-.158792-.05489908-.611019-.08858716-1.356076-.10168807"/><path d="m133.885585 13.0649835c.689509.1235229 1.414641.1846605 2.177811.1846605.789132 0 1.484076-.0711192 2.088453-.2133578.603774-.1416146 1.120604-.3424954 1.548679-.6007706.42868-.2582752.843472-.6388257 1.24317-1.1435229.400906-.5034496.70883-1.1485138.925585-1.93269729.214943-.78480734.323019-1.59706422.323019-2.43739449 0-1.20091743-.207698-2.2333945-.623094-3.09618349-.416604-.86154128-1.044529-1.52220183-1.88317-1.98073394-.838038-.45977982-1.98883-.68873395-3.453585-.68873395-.769811 0-1.552302.06176147-2.346868.18466055-.018113.31629358-.034415.87838532-.046491 1.68565138l-.037434 1.40554128v3.8653945l.027774 3.00447705c.006641.4585321.025358 1.0468257.056151 1.7630092m-2.899925 1.0574312v-.4653945c.359246-.2133578.659925-.4073762.900831-.5814312.038037-.4391927.069434-1.0493211.094792-1.8303853.043472-1.33005508.065208-2.25211012.065208-2.76928443v-3.95023854c0-.63258715-.015699-1.37497247-.047095-2.22715596-.024754-.53588991-.06883-.86777982-.13283-.99629358-.043472-.08484403-.108075-.14598165-.197434-.18466055-.207698-.09045871-.638792-.13911926-1.292679-.1453578l.256-.6026422c.912905.03244037 1.464151.03056881 2.164528.03056881.538566 0 1.272151-.01122936 2.201359-.03368807.929811-.02308257 1.650113-.03431193 2.16332-.03431193 1.532982 0 2.765283.20212844 3.698717.60638532.932227.40300917 1.72317 1.07988991 2.373434 2.0293945.652076.95012844.976906 2.1092477.976906 3.47922935 0 .98256881-.153962 1.9027523-.460075 2.76179817-.30551.85966971-.720906 1.61016511-1.248 2.25398161-.524076.6425688-1.086793 1.1510092-1.68634 1.525945-.601359.3749358-1.231094.6569174-1.890415.8478165-.659925.1908991-1.565585.2857248-2.71517.2857248-.381585 0-.898415-.0106055-1.548075-.0336881-.850114-.0230826-1.406793-.0343119-1.670038-.0343119-.380378 0-1.049962.0230825-2.006944.068"/><path d="m143.355532 1.20509725v-.59141285l2.261736-.45603669c.250566.09045871.422641.1759266.517434.25640367.092981.08110091.289811.32752293.589887.74113761.444377.61324771.957585 1.44983486 1.539622 2.50851376.582642 1.05930275 1.20151 2.26957798 1.859019 3.63269725.664755-1.05306422 1.344-2.1959633 2.038944-3.42869725l2.001509-3.51603669h1.430943v.26201834c-.344151.39427523-.976301 1.24957799-1.896452 2.56653211-.531925.76234863-1.223246 1.86968808-2.073963 3.32264221-.531924.89772477-.832603 1.4479633-.901434 1.65133945-.068226.20337614-.103245.39552293-.103245.57644036v.7467523c0 .87900917.00966 1.73555967.028377 2.56965137.018717.6144954.064604.9794495.136453 1.0961101.072453.1160367.18717.2021284.34717.2570275s.611623.0885872 1.356679.1016881v.6207339c-1.019169-.0449174-1.90249-.068-2.647547-.068-.712453 0-1.654943.0230826-2.824453.068v-.6207339c.734189-.0131009 1.182189-.046789 1.344-.1016881.161812-.0548991.271095-.1310092.326642-.2277064.080905-.1291376.131019-.4429358.149736-.9407706.007849-.136.023547-1.054312.047094-2.75431197v-1.134789c-.131623-.29009174-.259623-.55211009-.384-.78418348-.088755-.16157798-.407547-.71680734-.956981-1.66568807l-.621283-1.04620184c-.487245-.8266055-.850113-1.41427523-1.088-1.76238532-.457057-.67126606-.835623-1.15288073-1.135698-1.44359633-.163019-.16157798-.333283-.27387156-.512-.33875229-.178113-.06425689-.455246-.09669725-.830189-.09669725"/><path d="m173.520664 12.4155523-.364679.9020917c-.732377.3817982-1.44966.6581652-2.149434.829101-.701585.1715596-1.465359.2570275-2.291321.2570275-.968453 0-1.87049-.1266422-2.703094-.3786789-.831396-.2520367-1.558944-.6126239-2.182038-1.0811376-.62249-.4697615-1.130868-.9950459-1.525132-1.5777248-.394264-.5820551-.694943-1.2146422-.899623-1.89713762-.207094-.68187156-.310943-1.43174312-.310943-2.24649541 0-2.06370643.696151-3.77368808 2.088453-5.12932111 1.392905-1.35500917 3.292377-2.03313761 5.701434-2.03313761.569962 0 1.097056.03431193 1.581283.10231193.485434.068 1.077736.19776146 1.77449.38741284.697359.19089908 1.124227.30256881 1.280604.33500917-.137056.35559633-.239094.70433028-.309132 1.04744955-.100226.54899082-.169057 1.1865688-.20649 1.91023853h-.591095l-.010264-1.14352294c-.061585-.63445871-.401509-1.10671559-1.017358-1.41677064-.616453-.31005505-1.519095-.4653945-2.708529-.4653945-.888151.01372478-1.64166.13100918-2.262339.35434863-.618868.22271559-1.16468.57519266-1.636831 1.05680734-.472754.48161468-.857962 1.09299082-1.158641 1.83288073-.300679.74051376-.453434 1.66943119-.460679 2.788 0 1.95952294.579019 3.53537611 1.736452 4.72755961 1.157434 1.1928074 2.687397 1.7898349 4.589887 1.7898349.856151 0 1.651925-.1222752 2.383698-.3662018.501132-.165945.998038-.4292111 1.491925-.7879267z"/><path d="m175.248242 14.1226018v-.5046972c.384603-.1865321.628528-.335633.734792-.4448074.060981-.0586422.10566-.1328807.129811-.2239633.055547-.1802935.092981-.5683302.111095-1.1622385.031396-.8852477.04649-1.4117798.04649-1.5795963v-5.2135413c0-.87838532-.007849-1.73805505-.027773-2.57776147-.018717-.61324771-.063397-.97695413-.135849-1.09049541-.07185-.11229358-.187774-.19651376-.346566-.25141285-.16-.05489908-.612227-.08921101-1.356076-.10168807v-.62073394c1.525736.04491743 2.470642.068 2.834113.068.400302 0 1.29751-.02308257 2.69283-.068v.62073394c-.743849.01247706-1.196075.04678899-1.355471.10168807-.16.05489909-.270491.13038532-.333887.22770643-.074868.12913761-.121359.44231192-.140076.93952293-.007849.12913762-.022943 1.04682569-.047698 2.75244037v6.5117798c0 .6787523.016302 1.2302385.047698 1.6569541.713057.0449175 1.420076.0673762 2.121057.0673762 1.764226 0 3.000755-.1160367 3.707774-.3481101.080905-.1946422.153358-.4173578.215547-.6700184l.374943-1.6095412h.628529c-.137057.9632293-.271699 2.094899-.403321 3.3943853-.256.0517798-.458868.0842202-.609812.0966972-.32483.0193395-.825358.0293211-1.501584.0293211l-5.556529-.068c-.600754 0-1.21117.0230826-1.830037.068"/><path d="m184.477585.97233762v-.62073395c1.01917.04491743 1.968302.068 2.844377.068.888151 0 1.771472-.02308257 2.64634-.068v.62073395c-.734189.01310091-1.183396.04678899-1.344604.10168807-.161811.05489908-.271094.13038532-.327245.22770642-.080906.12913761-.131019.44231193-.149132.93952294-.007849.12913761-.022944 1.04682568-.046491 2.75244036v3.58528441c0 1.38869724.085736 2.30513758.257812 2.74682568.172075.4429358.445584.8097615.821132 1.0998532.288.2202202.675622.3961468 1.164075.5284037.487245.1322569 1.032453.1983853 1.632604.1983853.700981 0 1.323472-.0879633 1.868679-.2657615.543396-.178422.952151-.3942752 1.224453-.6494312.271698-.2557798.47517-.5415045.610415-.8577981.134038-.3162936.231849-.7504954.290415-1.3032294.05917-.55273392.089359-1.25207337.089359-2.09864218v-2.98388991c0-.87838532-.016302-1.73805504-.047699-2.57838532-.012075-.6132477-.053735-.97633027-.125584-1.08987156-.071849-.11229358-.188982-.19651376-.350189-.25141284-.161811-.05489908-.609811-.08858716-1.344-.10168807v-.62073395c1.030038.04491743 1.781736.068 2.256302.068.431094 0 .885132-.00998165 2.008151-.05552294l.001207.61574312c-.739622.01310092-.867019.03930276-1.025811.09420184-.158793.05489908-.269283.13038532-.331472.22770642-.074868.12913761-.121962.44231193-.139471.94014679-.006642.12913761-.018717 1.04682569-.038642 2.75181651v3.24653211c0 1.59581652-.107472 2.71001838-.323623 3.34385318-.215547.6325872-.611622 1.1915597-1.187018 1.6756698-.431095.3624587-.985963.6438165-1.665208.8434495-.678642.2002569-1.432151.3000734-2.258717.3000734-.963019 0-1.798642-.1172844-2.505057-.3531009-.707018-.2358165-1.245585-.5458716-1.61449-.9301652-.368906-.3849174-.622491-.7766972-.760755-1.1778348-.17449-.5302753-.262641-1.4173945-.262641-2.66447709v-4.284c0-.87838532-.008453-1.73805504-.027774-2.57776147-.018717-.6132477-.064-.97695412-.136453-1.09049541-.072453-.11229358-.18717-.19651376-.346566-.25141284-.16-.05489908-.612226-.08858716-1.356679-.10168807"/><path d="m201.805404 13.1241248c.470339.1160367.966641.174055 1.485887.174055.827773 0 1.495547-.1310092 2.00332-.3924037.50717-.2613944.898415-.6562935 1.170114-1.1859449.272301-.5296514.409962-1.1360367.409962-1.82040368 0-.67812844-.128-1.24708257-.385812-1.70873394-.257207-.46165138-.641811-.80414679-1.151396-1.02686239-.511396-.22271559-1.35366-.33376147-2.526188-.33376147-.26868 0-.614038.01310092-1.034265.0386789v3.66950458c0 .3555963.009661 1.2171376.028378 2.5858716zm-.028378-7.05078902c.357434.01933945.671397.0293211.94068.0293211.778264 0 1.378415-.06176147 1.80166-.18466055.422038-.12227523.749887-.28447706.98234-.48473394.232452-.19963303.424452-.47163303.579019-.8147523.152754-.34249541.229433-.74300917.229433-1.20278899 0-.80726605-.24815-1.39119266-.746264-1.74990826-.499924-.35871559-1.228075-.53838532-2.186264-.53838532-.534339 0-1.03849.05240367-1.515472.15533945-.056754.53526606-.085132 1.36436697-.085132 2.4866789zm-2.674113 8.04957802v-.4560367c.387623-.2002569.60317-.3244037.647245-.3736881.044076-.0480367.079699-.1328807.10385-.2564037.03683-.1927706.070037-.6045137.099018-1.2339816.028378-.6294679.041057-1.109211.041057-1.4379817v-5.83864218c0-.63258716-.014491-1.37497248-.046491-2.22777982-.025358-.53588991-.070037-.86777982-.13283-.99629358-.043471-.08484403-.109887-.14598165-.198037-.18466055-.207699-.09045871-.504755-.13100917-1.158642-.13787156l-.001208-.61511926c.206491.01247706.333283.00686238.646038.00686238l1.955019.04866055 3.456604-.0879633c.914717 0 1.618717.09669725 2.113811.29133945.495698.19339449.880906.50906422 1.159849.94576147.278944.43607339.419623.92205504.419623 1.4585688 0 .42733945-.083925.82847707-.250566 1.20278899-.165434.37555964-.387623.69996331-.666566.97508257-.278944.27449542-.589887.49783487-.931019.6693945-.341132.17093578-.787925.32752293-1.33917.47038532.732981.07049541 1.325887.17530275 1.776302.31442202.451019.13849541.827774.34499082 1.133283.62011009.303094.27387156.532528.60825688.689509 1.00190826.156378.39365137.235472.83284403.235472 1.31757798 0 .95574307-.281358 1.79607337-.84166 2.52348627-.560302.7261651-1.283019 1.2639266-2.165736 1.6120367-.65751.258899-1.436981.3880367-2.339623.3880367l-2.723019-.0773578c-.295245 0-.854339.0255779-1.682113.0773578z"/><path d="m212.550702 2.51069725h.146717c.276528 0 .473962-.05177982.592302-.15533945.118339-.10293578.177509-.24766973.177509-.43482569 0-.18965138-.049509-.33376147-.149736-.43420183-.100226-.10044037-.26566-.15034863-.495698-.15034863h-.107471c-.064604 0-.102038.00748624-.115925.02183486-.012679.01434863-.024151.03306422-.033811.05614679-.009057.02308257-.013887.07922936-.013887.16968808zm-.737811 1.36873394v-.10231192c.136452-.00249542.216151-.0081101.239698-.01809175s.04166-.0293211.056151-.05801835c.013283-.02807339.020528-.0985688.020528-.21086238v-1.89027523c0-.11416514-.007245-.18590826-.020528-.21585321-.014491-.02994496-.039246-.04866055-.074265-.0573945-.022339-.00686238-.096-.01122935-.221584-.01372477v-.10543119h1.10249c.26083 0 .460679.02807339.599547.08422018.138264.05614679.23668.13662386.296453.2414312.060377.10418348.089359.21647706.089359.33750458 0 .17155964-.057963.32128441-.175698.45042202-.116529.12851376-.30068.21460551-.55185.25889908.082717.02370643.144906.05115597.185359.08234863.063396.0480367.121962.11478899.175094.19838532.053736.08297248.119547.21772477.199849.40363303.079698.18590825.138264.30693578.176906.36308257.038038.05614678.077887.09482568.11834.1172844.029585.01497248.07849.02620183.146717.03244037v.10231192h-.287397c-.117132 0-.204679-.01310091-.263245-.03930275-.058566-.02620183-.10566-.07049541-.141887-.13225688-.059773-.09669725-.146717-.29258716-.262037-.58642202-.05917-.15658715-.111699-.26388991-.155774-.32190826-.045283-.0586422-.092377-.09794495-.141283-.11915596s-.124377-.03119266-.226415-.03119266h-.146717v.84095413c0 .11478899.007245.18590826.020528.2146055.013887.02869725.039245.0480367.074868.05926606.021132.00686238.084528.0106055.188981.01310092v.10231192zm-.957585-1.24708257c0 .36744955.089358.72616514.268679 1.0773945.178717.3506055.434717.62447706.768604.82099082.33449.19713762.682264.29570643 1.044528.29570643.314566 0 .613434-.07174312.896604-.21460551.208905-.10543119.399698-.24704587.572981-.42546789s.32-.40113761.435924-.67001835c.117132-.26763302.175699-.56271559.175699-.884 0-.23768807-.036227-.46976146-.10868-.69746789-.072453-.22708256-.173887-.43108256-.304905-.61137614-.129812-.18029358-.279548-.33563303-.444982-.4653945-.166037-.12976147-.354415-.23207339-.565132-.30693578-.210717-.07486238-.429283-.11166972-.657509-.11166972-.362264 0-.710038.0973211-1.044528.29321101-.333887.19588991-.589887.46913761-.768604.82161468-.179321.35122935-.268679.7105688-.268679 1.07801834zm-.290415 0c0-.34499082.066415-.67126605.199245-.97757798.133434-.30693578.294641-.55647706.485434-.74862385.190188-.19277064.399698-.34748624.627321-.46352294.338113-.17405504.69132-.26077064 1.060226-.26077064.259019 0 .508377.04242202.748679.12726606.239095.08422018.453434.19838532.643019.3412477.189585.14286239.358642.31442202.50717.51655046.149132.20088074.26566.42858716.348377.68374312.082717.25577982.124378.51592661.124378.78168807 0 .35684404-.067019.68436698-.201057.98319266-.134038.29944955-.299472.54836698-.496302.74924771-.19683.19963303-.412981.35933945-.64966.47787156-.325434.16033028-.667774.24080734-1.024604.24080734-.412981 0-.80966-.10979817-1.189434-.3293945-.379774-.22022018-.672-.52590825-.876075-.91768807-.20468-.39115596-.306717-.79291743-.306717-1.2040367z"/><path d="m22.2685585 23.637611c-.4950943.2139817-.8295849.6101284-1.0046793 1.1865688-.1769056.5770642-.2644528 1.500367-.2644528 2.7699083v18.5459082 3.0169542c0 2.2589724-.0513207 4.2209908-.1539622 5.8854312-.1044529 1.6650642-.3326793 3.0993027-.6834717 4.3020917-.4467925 1.5833394-1.2316982 2.9969908-2.3571321 4.2422018-1.1242264 1.2433395-2.5449057 2.2252844-4.2590189 2.9427156-1.7159245.7161835-3.64256603 1.075523-5.78052829 1.075523-2.07456604 0-3.72407547-.3219083-4.95456604-.965101-1.6114717-.8247339-2.41690566-2.035633-2.41690566-3.6345688 0-1.0387156.35924528-1.8753027 1.07713207-2.5097614.7178868-.6350826 1.66822642-.952 2.848-.952 1.14958491 0 2.05826416.2913394 2.72905661.8777614.66898113.5845505 1.00467924 1.4130276 1.00467924 2.4848074 0 .7592293-.21615094 1.4348624-.64603773 2.0275229-.43169812.5932844-1.05298113 1.0306055-1.8674717 1.3107156.32.2314495.90988679.3468624 1.7714717.3468624 1.19667924 0 2.22671698-.3300184 3.0876981-.9888073.8615849-.6606606 1.4828679-1.5421652 1.8656604-2.6470092.288-.8733945.4999245-1.7966973.634566-2.7692844.1352453-.973211.2197736-2.1260918.2517736-3.4617615s.0476981-3.3301284.0476981-5.9852477v-23.1449541c0-1.2695413-.0917736-2.1928441-.2753207-2.7699083-.184151-.5764404-.5264906-.9725871-1.0288302-1.1865688-.5023396-.2146055-1.2969057-.3468624-2.38188681-.3967706v-1.0131376c1.62777361.0991926 4.11713211.148477 7.46747171.148477 3.3020377 0 5.863849-.0492844 7.6824151-.148477v1.0131376c-1.1006793.0499082-1.8994717.1821651-2.3933585.3967706"/><path d="m38.9269132 24.6885541c-1.3651321 1.5078532-2.4181132 3.6096147-3.1595472 6.3052844-.7420377 2.6956698-1.1133585 5.7824954-1.1133585 9.2617248 0 3.5110459.4147925 6.6022385 1.2449812 9.2723303.8295849 2.6713394 1.9538113 4.7319266 3.3744905 6.1830092 1.4194717 1.4504587 2.9995472 2.1753761 4.7390189 2.1753761 1.8022642 0 3.3853585-.7536147 4.7504906-2.2627156 1.3633207-1.5084771 2.4169056-3.6102385 3.1583396-6.3059083.7420377-2.694422 1.1133585-5.7818715 1.1133585-9.2611009 0-3.493578-.4147925-6.5810275-1.2437736-9.2598532-.8307924-2.6794495-1.9592453-4.7437798-3.3871698-6.1954862-1.4285283-1.4498349-3.0037736-2.176-4.7263396-2.176-1.8034717 0-3.3865661.7542385-4.7504906 2.2633394m14.0244528-1.0012844c2.6089057 1.4504587 4.6303397 3.5565872 6.066717 6.3171376 1.4357736 2.7617982 2.1536604 6.0470092 2.1536604 9.8543854 0 3.726899-.7390189 7.0239633-2.213434 9.8918165-1.4768302 2.868477-3.5302641 5.0943853-6.1627169 6.676477-2.6330567 1.5833395-5.624151 2.3743854-8.9750944 2.3743854-3.4614339 0-6.4978113-.7249175-9.106717-2.1766239-2.6076981-1.449211-4.6267169-3.5559633-6.0540377-6.3183853-1.4291321-2.7605505-2.1427925-6.0451376-2.1427925-9.8531376 0-3.7262753.7347925-7.0233395 2.2025661-9.8918165 1.4677736-2.869101 3.5175849-5.0943854 6.1500377-6.6764771 2.6324528-1.5833395 5.6326038-2.3750092 8.9986415-2.3750092 3.4463396 0 6.4742642.7261652 9.0831698 2.1772477"/><path d="m92.3567094 24.0945211c-.5023396.4204771-.8458868 1.0630459-1.0282264 1.9289541-.1835472.8652844-.2753207 2.163523-.2753207 3.8947156v13.4278165c0 4.8304955-.6707925 8.4076698-2.0105661 10.7321468-.8935849 1.500367-2.1699622 2.6626055-3.8297358 3.4867156s-3.7011321 1.2364771-6.1264906 1.2364771c-3.7651321 0-6.7091321-.8490642-8.8307924-2.5471927-1.0366793-.8571743-1.8312453-1.8547156-2.3812831-2.992-.5506415-1.1372844-.9249811-2.4685871-1.1254339-3.9939082-.1992453-1.5253211-.2994717-3.4492844-.2994717-5.7737615v-15.9007706c0-1.2695413-.0917736-2.1922202-.2735095-2.7692844-.1841509-.5770643-.5276981-.9732111-1.0300377-1.1865688-.5023396-.2146056-1.2969057-.3468624-2.3806792-.3967707v-1.0131376c1.6754717.0991927 4.2191698.1478532 7.6335094.1478532 3.3823396 0 5.9833962-.0486605 7.8031698-.1478532v1.0131376c-1.1815849.0499083-2.0383396.1821651-2.573283.3967707-.5355472.2133577-.901434.6095045-1.1018868 1.1865688-.1986415.5770642-.2988679 1.4997431-.2988679 2.7692844v19.0905321c0 2.3743853.2070943 4.3064587.6230943 5.7987156.4147925 1.491633 1.112151 2.622055 2.0944906 3.3881468.9811321.7673394 2.3329811 1.1497614 4.0555471 1.1497614 3.2549434 0 5.5565284-1.1372844 6.9047548-3.4118532 1.3482264-2.2751926 2.0232452-5.5073761 2.0232452-9.694055v-13.379156c0-1.9601468-.117132-3.4155963-.3483773-4.3638532-.2306415-.947633-.6732076-1.6357431-1.3270943-2.0649541-.6556982-.4285872-1.6833208-.7168074-3.0876982-.8659083v-1.0131376c1.2286793.0991927 2.9916982.1478532 5.2890566.1478532 1.8185661 0 3.2392453-.0486605 4.2602265-.1478532v1.0131376c-1.0698868.1491009-1.8547925.4329541-2.3583397.8534312"/><path d="m115.141494 38.9692404c1.028227-.7249175 1.737661-1.6987523 2.128906-2.9183854.390642-1.2190091.586868-2.6863119.586868-4.4012844 0-2.7692844-.475774-4.8629357-1.424906-6.2809541-.948528-1.4173945-2.500226-2.1273394-4.653887-2.1273394-.877886 0-1.52815.1204036-1.950792.3587156-.423245.2395596-.710038.6600367-.861585 1.262055-.151547.6020184-.227019 1.512844-.227019 2.7324771v12.4620917h2.105359c1.835471 0 3.267019-.3618348 4.297056-1.0873761m12.492076 19.1398165c-1.012528.4610275-2.23034.692477-3.649208.692477-1.88317 0-3.373887-.4123669-4.475773-1.2358532-1.101283-.8259816-1.819774-2.2421284-2.153057-4.2546789l-.886943-5.0451009c-.285585-1.6307523-.585057-2.945211-.897208-3.9433761-.310339-.9975413-.758339-1.7885872-1.339773-2.3743854-.583246-.5839266-1.353057-.8771376-2.310038-.8771376h-3.182491v11.6473395c0 1.2682936.086944 2.1934679.263246 2.7699082.175698.5758166.510792.9719633 1.004679 1.1865688.493887.2152294 1.292679.3468624 2.393358.3961468v1.0137615c-1.739471-.1004404-4.203471-.1491009-7.395622-.1491009-3.494038 0-6.0709438.0486605-7.7295098.1491009v-1.0137615c1.0843773-.0492844 1.874717-.1809174 2.3698113-.3961468.4938865-.2146055.8332075-.6107522 1.0173585-1.1865688.181736-.5764403.274113-1.5016146.274113-2.7699082v-25.1238165c0-1.2701652-.092377-2.1928441-.274113-2.7699083-.184151-.5770642-.523472-.9725871-1.0173585-1.1865688-.4950943-.2146055-1.285434-.3468624-2.3698113-.3967706v-1.0131377c1.658566.0991927 4.1394718.1478533 7.4427168.1478533 1.308378 0 2.761057-.0155964 4.355623-.0486606 1.595773-.0330642 2.704905-.0499082 3.326792-.0499082 4.499925 0 7.888906.7629724 10.171774 2.2876697 2.28166 1.5240734 3.423396 3.6969541 3.423396 6.5148991 0 1.5009908-.344755 2.9271192-1.030038 4.2783853-.68649 1.3525137-1.851169 2.5272293-3.494641 3.5228991-1.642868.998789-3.813434 1.6613211-6.508679 1.9925871h.047094c1.97917.1809175 3.602717.5265321 4.870641 1.0380918 1.267925.5115596 2.261736 1.224 2.979623 2.1391926.719094.913945 1.22083 2.0805505 1.507019 3.4991927l1.126641 5.2172844c.269283 1.3687339.577208 2.316367.920151 2.8441468.34234.5265321.824755.790422 1.446642.790422.384604-.0155963.71849-.1141651 1.005887-.2957064.287396-.1815413.605585-.4703853.957585-.8659083l.669585.6176147c-.893585 1.0387156-1.84634 1.789211-2.859472 2.2508624"/><path d="m161.114385 24.0945211c-.50234.4204771-.845887 1.0630459-1.028227 1.9289541-.18415.8652844-.27532 2.163523-.27532 3.8947156v28.2655413c-.239698-.0180917-.639396-.025578-1.197283-.025578-.574793 0-1.012529.0074863-1.315623.025578l-21.276981-27.8450642v19.4373945c0 1.9938348.104453 3.4573945.312151 4.3894312.207094.930789.634566 1.610789 1.28 2.0393761.646038.4285872 1.702641.7174312 3.171019.8652844v1.0137615c-1.260679-.0991927-3.023698-.1472294-5.289057-.1472294-1.803472 0-3.223547.0480367-4.260226.1472294v-1.0137615c1.068075-.1478532 1.854792-.4317064 2.357132-.8528073.503547-.4211009.845283-1.0630459 1.029434-1.9289541.183547-.8652844.275321-2.163523.275321-3.8947156v-22.7999633c0-1.2695413-.091774-2.1922202-.275321-2.7692844-.184151-.5770643-.522868-.9732111-1.016755-1.1865688-.495698-.2146056-1.283623-.3468624-2.369811-.3967707v-1.0131376c1.036679.0991927 2.456754.1478532 4.260226.1478532 1.643472 0 3.047245-.0486605 4.211925-.1478532l18.979622 24.1593394v-15.8514862c0-1.9938349-.104453-3.4573945-.312151-4.3888073-.207094-.930789-.634566-1.610789-1.28-2.04-.646641-.4285872-1.703245-.7168074-3.171018-.8659083v-1.0131376c1.259471.0991927 3.023698.1478532 5.289056.1478532 1.817962 0 3.239245-.0486605 4.260227-.1478532v1.0131376c-1.069887.1491009-1.854793.4329541-2.35834.8534312"/><path d="m175.953992 29.8194972-5.072301 13.6748624h9.931471zm18.571472 26.4476331c.542189.5028257 1.086189.7704587 1.627774.8035229v1.0137615c-1.961661-.0998165-4.443774-.1484771-7.442717-.1484771-3.35034 0-5.831246.0486606-7.442717.1484771v-1.0137615c1.227471-.0492844 2.109585-.2064954 2.643924-.4703853.533736-.2638899.801208-.7249174.801208-1.3843303 0-.5109358-.198642-1.3113394-.597132-2.3993394l-2.943396-8.3084771h-10.674114l-1.292679 3.4867156c-.894792 2.3737615-1.339773 4.254055-1.339773 5.6383853 0 1.2526973.358641 2.1267156 1.077132 2.6214312.717283.4940918 1.80166.7667156 3.253735.816v1.0137615c-2.201962-.0998165-4.228226-.1484771-6.078792-.1484771-1.49917 0-2.744151.0486606-3.733132.1484771v-1.0137615c1.626566-.2807339 3.03034-2.0531009 4.211924-5.3164771l11.175849-29.6255412c.527699.0492844 1.093434.0748623 1.700227.0748623.637585 0 1.203321-.0255779 1.699623-.0748623l11.893735 31.7017247c.431699 1.122312.916529 1.9333211 1.459321 2.4367707z"/><path d="m209.352574 23.637611c-.536151.2139817-.901434.6101284-1.10068 1.1865688-.200452.5770642-.298868 1.500367-.298868 2.7699083v25.7171009c0 1.088.075472 1.8759266.226416 2.3619082.152754.4866056.438339.8166239.860981.9894312.424452.1728074 1.089811.259523 1.99849.259523h2.393359c1.484679 0 2.844377-.4697615 4.081509-1.4099083 1.235321-.9395229 2.272604-2.2620917 3.110642-3.9689541.838037-1.7049908 1.415245-3.6794862 1.735245-5.9228624h1.124226c-.094792 1.1547523-.143094 2.6382752-.143094 4.4518165 0 3.2484037.111698 5.9184954.335094 8.0121468-2.21766-.0991927-5.958641-.1478532-11.224754-.1478532-7.115472 0-12.436529.0486605-15.962566.1478532v-1.0137615c1.083773-.0492844 1.874717-.1809174 2.369811-.3955229.493887-.2152294.833207-.6101284 1.017358-1.1871927.181736-.5764403.274114-1.5009908.274114-2.7699082v-25.1238165c0-1.2695413-.092378-2.1928441-.274114-2.7699083-.184151-.5764404-.523471-.9725871-1.017358-1.1865688-.495094-.2146055-1.286038-.3468624-2.369811-.3967706v-1.0131376c1.643471.0991926 4.220981.148477 7.729509.148477 3.31834 0 5.888604-.0492844 7.70717-.148477v1.0131376c-1.180981.0499082-2.03834.1821651-2.572679.3967706"/></g></svg>