<svg width="39" height="39" viewBox="0 0 39 39" version="1.1" xmlns="http://www.w3.org/2000/svg"><g id="Mockups" stroke="none" stroke-width="1" fill="none" fill-rule="evenodd"><g id="Blog-Post:-Case-Study-v1" transform="translate(-342 -1923)" fill-rule="nonzero"><g id="Group-8-Copy" transform="translate(326 1909)"><g id="expand-icon" transform="translate(16 14)"><path d="M0 .979v36.986c0 .542.438.98.979.98h17.829a.978.978 0 1 0 0-1.959H1.95V1.95h35.036v16.754a.978.978 0 1 0 1.958 0V.98a.978.978 0 0 0-.979-.98H.98A.978.978 0 0 0 0 .979z" id="Path" fill="#FFF"/><path d="M38.936 37.957V24.403a.978.978 0 0 0-.979-.98H24.403a.978.978 0 0 0-.98.98v13.562c0 .542.439.98.98.98h13.562a.989.989 0 0 0 .971-.988zm-1.95-.97H25.374V25.373h11.612v11.612z" id="Shape" fill="#D7D5D5"/><path d="M17.494 7.808a.978.978 0 0 0-.979-.979H7.808a.978.978 0 0 0-.979.979v8.715a.978.978 0 1 0 1.958 0v-6.367l11.04 11.04a.97.97 0 0 0 .692.286.97.97 0 0 0 .692-.287.97.97 0 0 0 0-1.377L10.156 8.78h6.36a.977.977 0 0 0 .978-.971z" id="Path" fill="#FFF"/></g></g></g></g></svg>