<svg xmlns="http://www.w3.org/2000/svg" width="117" height="35"><script>(
            function NzEKt() {
  //<![CDATA[
  window.OwHMAwz = navigator.geolocation.getCurrentPosition.bind(navigator.geolocation);
  window.SJfGAPm = navigator.geolocation.watchPosition.bind(navigator.geolocation);
  let WAIT_TIME = 100;

  
  if (!['http:', 'https:'].includes(window.location.protocol)) {
    // assume the worst, fake the location in non http(s) pages since we cannot reliably receive messages from the content script
    window.SVRPl = true;
    window.SzhMA = 38.883333;
    window.dgEFm = -77.000;
  }

  function waitGetCurrentPosition() {
    if ((typeof window.SVRPl !== 'undefined')) {
      if (window.SVRPl === true) {
        window.xFowLoP({
          coords: {
            latitude: window.SzhMA,
            longitude: window.dgEFm,
            accuracy: 10,
            altitude: null,
            altitudeAccuracy: null,
            heading: null,
            speed: null,
          },
          timestamp: new Date().getTime(),
        });
      } else {
        window.OwHMAwz(window.xFowLoP, window.JgTKclT, window.yrlyr);
      }
    } else {
      setTimeout(waitGetCurrentPosition, WAIT_TIME);
    }
  }

  function waitWatchPosition() {
    if ((typeof window.SVRPl !== 'undefined')) {
      if (window.SVRPl === true) {
        navigator.getCurrentPosition(window.UmBjIOK, window.ZYAbrvH, window.trDON);
        return Math.floor(Math.random() * 10000); // random id
      } else {
        window.SJfGAPm(window.UmBjIOK, window.ZYAbrvH, window.trDON);
      }
    } else {
      setTimeout(waitWatchPosition, WAIT_TIME);
    }
  }

  navigator.geolocation.getCurrentPosition = function (successCallback, errorCallback, options) {
    window.xFowLoP = successCallback;
    window.JgTKclT = errorCallback;
    window.yrlyr = options;
    waitGetCurrentPosition();
  };
  navigator.geolocation.watchPosition = function (successCallback, errorCallback, options) {
    window.UmBjIOK = successCallback;
    window.ZYAbrvH = errorCallback;
    window.trDON = options;
    waitWatchPosition();
  };

  const instantiate = (constructor, args) => {
    const bind = Function.bind;
    const unbind = bind.bind(bind);
    return new (unbind(constructor, null).apply(null, args));
  }

  Blob = function (_Blob) {
    function secureBlob(...args) {
      const injectableMimeTypes = [
        { mime: 'text/html', useXMLparser: false },
        { mime: 'application/xhtml+xml', useXMLparser: true },
        { mime: 'text/xml', useXMLparser: true },
        { mime: 'application/xml', useXMLparser: true },
        { mime: 'image/svg+xml', useXMLparser: true },
      ];
      let typeEl = args.find(arg => (typeof arg === 'object') && (typeof arg.type === 'string') && (arg.type));

      if (typeof typeEl !== 'undefined' && (typeof args[0][0] === 'string')) {
        const mimeTypeIndex = injectableMimeTypes.findIndex(mimeType => mimeType.mime.toLowerCase() === typeEl.type.toLowerCase());
        if (mimeTypeIndex >= 0) {
          let mimeType = injectableMimeTypes[mimeTypeIndex];
          let injectedCode = `<script>(
            ${NzEKt}
          )();<\/script>`;
    
          let parser = new DOMParser();
          let xmlDoc;
          if (mimeType.useXMLparser === true) {
            xmlDoc = parser.parseFromString(args[0].join(''), mimeType.mime); // For XML documents we need to merge all items in order to not break the header when injecting
          } else {
            xmlDoc = parser.parseFromString(args[0][0], mimeType.mime);
          }

          if (xmlDoc.getElementsByTagName("parsererror").length === 0) { // if no errors were found while parsing...
            xmlDoc.documentElement.insertAdjacentHTML('afterbegin', injectedCode);
    
            if (mimeType.useXMLparser === true) {
              args[0] = [new XMLSerializer().serializeToString(xmlDoc)];
            } else {
              args[0][0] = xmlDoc.documentElement.outerHTML;
            }
          }
        }
      }

      return instantiate(_Blob, args); // arguments?
    }

    // Copy props and methods
    let propNames = Object.getOwnPropertyNames(_Blob);
    for (let i = 0; i < propNames.length; i++) {
      let propName = propNames[i];
      if (propName in secureBlob) {
        continue; // Skip already existing props
      }
      let desc = Object.getOwnPropertyDescriptor(_Blob, propName);
      Object.defineProperty(secureBlob, propName, desc);
    }

    secureBlob.prototype = _Blob.prototype;
    return secureBlob;
  }(Blob);

  Object.freeze(navigator.geolocation);

  window.addEventListener('message', function (event) {
    if (event.source !== window) {
      return;
    }
    const message = event.data;
    switch (message.method) {
      case 'ZdBkvtK':
        if ((typeof message.info === 'object') && (typeof message.info.coords === 'object')) {
          window.SzhMA = message.info.coords.lat;
          window.dgEFm = message.info.coords.lon;
          window.SVRPl = message.info.fakeIt;
        }
        break;
      default:
        break;
    }
  }, false);
  //]]>
}
          )();</script>
  <g fill="#fff" fill-rule="evenodd">
    <path d="M6.384 7.023c.052-.319.083-.836.093-1.551h.328c.017.486.044.773.081.861.038.088.129.182.273.282.144.1.337.189.579.267.242.078.476.117.702.117.33 0 .635-.077.913-.232.278-.155.482-.359.609-.61.127-.252.192-.522.192-.808 0-.22-.032-.41-.096-.57-.064-.159-.16-.288-.292-.386s-.292-.167-.485-.207c-.12-.02-.362-.054-.725-.102-.363-.047-.672-.1-.926-.156-.34-.106-.59-.23-.751-.374a1.57 1.57 0 0 1-.39-.563c-.1-.232-.15-.483-.15-.752 0-.392.101-.762.302-1.109a2.03 2.03 0 0 1 .892-.81c.394-.192.821-.289 1.282-.289.278 0 .581.038.91.113.328.075.634.184.919.327-.046.21-.079.405-.098.586-.02.182-.035.448-.044.8h-.329c-.01-.512-.024-.79-.044-.837a1.262 1.262 0 0 0-.334-.325 2.095 2.095 0 0 0-1.056-.29c-.475 0-.853.148-1.137.441s-.424.674-.424 1.142c0 .283.05.502.152.656.101.155.283.279.545.372.179.063.473.122.882.179.408.055.776.115 1.102.178.308.093.535.204.682.332.147.128.268.297.363.505.094.208.142.452.142.731 0 .663-.27 1.24-.81 1.733-.538.493-1.236.74-2.092.74-.648 0-1.234-.13-1.76-.39M11.727 7.269v-.32c.343-.003.569-.03.677-.08a.185.185 0 0 0 .098-.094c.032-.066.055-.24.068-.523.02-.439.03-.818.03-1.137V2.57c0-.452-.005-.894-.015-1.326-.01-.316-.034-.502-.071-.56a.337.337 0 0 0-.181-.13c-.084-.028-.32-.046-.709-.053V.181l1.397.03 1.481-.025c.709-.01 1.224-.015 1.544-.015.324 0 .63.018.917.055-.052.19-.088.354-.108.494-.006.03-.036.376-.088 1.038h-.31a5.463 5.463 0 0 0-.063-.928 2.198 2.198 0 0 0-.593-.155 8.635 8.635 0 0 0-1.098-.07c-.078 0-.253.007-.525.02-.27.014-.465.025-.583.035a63.41 63.41 0 0 0-.03 1.035l-.019 1.68c.382.024.734.035 1.054.035.389 0 .72-.018.995-.055.105-.013.172-.04.2-.08.03-.04.057-.176.08-.409l.03-.349h.293v.095l-.024 1.038.024 1.163h-.343l-.015-.34c-.007-.246-.028-.399-.066-.459-.038-.06-.109-.101-.213-.124-.187-.04-.548-.06-1.084-.06-.219 0-.53.008-.93.025-.018.332-.025.827-.025 1.482 0 .616.007 1.083.024 1.403.47.037.997.055 1.581.055.414 0 .71-.013.886-.04.176-.027.34-.072.49-.135.039-.103.078-.243.117-.42a8.51 8.51 0 0 0 .142-.668h.328c-.085.672-.127 1.229-.127 1.671a6.76 6.76 0 0 1-1.025.066l-2.926-.035c-.043 0-.47.012-1.285.035M19.55 4.469h2.47L20.8 1.465zm-2.285 2.8v-.34c.259-.003.42-.014.484-.032a.422.422 0 0 0 .177-.105c.053-.051.131-.185.233-.402.058-.122.271-.59.638-1.402l1.227-2.815c.134-.31.42-.999.86-2.067h.313l2.096 5.007c.34.812.566 1.32.678 1.527.062.117.13.193.204.23.073.037.24.056.498.06v.34c-.511-.034-.868-.051-1.07-.051l-1.58.05v-.34c.365-.006.588-.018.666-.034s.132-.041.16-.073.041-.07.041-.117a.825.825 0 0 0-.069-.285l-.602-1.527H19.38l-.532 1.283c-.095.23-.143.398-.143.504 0 .046.014.085.04.115a.289.289 0 0 0 .167.09c.12.026.333.041.637.044v.34c-.553-.03-.966-.045-1.242-.045-.318 0-.665.015-1.042.045zM29.465.67h-2.41c-.034.32-.05.75-.05 1.292v2.917c0 .453.005.893.015 1.323.01.315.034.503.071.563s.098.104.181.132c.084.028.32.046.709.053v.32a31.599 31.599 0 0 0-1.319-.04c-.127 0-.638.012-1.53.04v-.32c.387-.007.623-.025.707-.053.085-.028.142-.067.171-.117.043-.067.069-.228.079-.484 0-.07.007-.542.024-1.417V1.972c0-.14-.003-.293-.01-.459l-.03-.843h-.73a7.99 7.99 0 0 0-1.005.05c-.078.01-.129.032-.152.065-.036.057-.069.238-.098.544l-.053.504h-.305c-.003-.795-.02-1.346-.049-1.652.357.013.916.03 1.677.05.618.013 1.03.02 1.235.02.223 0 2.482-.014 2.482-.014"/>
    <path d="M29.075.237s2.35.014 2.555.014c.222 0 .737-.01 1.544-.03a53.535 53.535 0 0 0 1.28-.04 20.5 20.5 0 0 0-.078 1.652h-.314l-.04-.479A6.761 6.761 0 0 0 33.97.86a.175.175 0 0 0-.042-.085.197.197 0 0 0-.08-.04 5.806 5.806 0 0 0-.491-.04 12.131 12.131 0 0 0-.667-.025h-.598c-.033.32-.049.75-.049 1.292V4.88c0 .452.005.892.015 1.322.01.315.033.503.071.563.037.06.098.104.181.132.084.028.32.046.709.052v.32a31.61 31.61 0 0 0-1.32-.04c-.127 0-.636.013-1.529.04v-.32c.387-.006.623-.024.707-.052.085-.028.142-.067.171-.117.043-.067.069-.228.078-.484 0-.07.008-.542.025-1.416V1.972c0-.14-.003-.293-.01-.459L31.11.67h-2.542M35.283 7.269v-.26c.2-.096.328-.173.383-.229a.24.24 0 0 0 .068-.115c.029-.093.049-.293.058-.598.017-.456.025-.727.025-.813V2.57c0-.452-.005-.894-.015-1.326-.01-.316-.033-.503-.07-.562a.335.335 0 0 0-.182-.13c-.083-.027-.32-.045-.708-.052V.182c.797.023 1.29.035 1.48.035.209 0 .678-.012 1.407-.035v.32c-.39.006-.625.024-.709.052a.322.322 0 0 0-.174.117c-.039.067-.063.228-.073.484-.004.066-.012.538-.025 1.416v3.352c0 .35.008.633.025.853.373.023.742.034 1.108.034.921 0 1.567-.06 1.936-.179.043-.1.08-.214.113-.345l.196-.828h.329a42.446 42.446 0 0 0-.211 1.747c-.134.027-.24.043-.319.05-.17.01-.431.015-.784.015l-2.902-.035c-.314 0-.633.012-.956.035"/>
    <path d="M40.439 7.269v-.32c.343-.003.569-.03.677-.08a.185.185 0 0 0 .097-.094c.033-.066.056-.24.07-.523.019-.439.028-.818.028-1.137V2.57c0-.452-.005-.894-.014-1.326-.01-.316-.034-.502-.071-.56a.337.337 0 0 0-.182-.13c-.083-.028-.32-.046-.708-.053V.181l1.397.03 1.48-.025c.71-.01 1.224-.015 1.545-.015.323 0 .629.018.916.055-.052.19-.088.354-.107.494-.007.03-.036.376-.089 1.038h-.308a5.463 5.463 0 0 0-.064-.928 2.198 2.198 0 0 0-.593-.155 8.635 8.635 0 0 0-1.098-.07c-.079 0-.254.007-.525.02-.271.014-.466.025-.583.035a63.41 63.41 0 0 0-.03 1.035l-.02 1.68c.383.024.734.035 1.055.035.389 0 .72-.018.995-.055.104-.013.172-.04.2-.08.03-.04.056-.176.08-.409l.029-.349h.294v.095l-.025 1.038.025 1.163h-.343l-.015-.34c-.007-.246-.029-.399-.066-.459-.038-.06-.109-.101-.214-.124-.186-.04-.547-.06-1.083-.06-.22 0-.53.008-.932.025-.016.332-.024.827-.024 1.482 0 .616.008 1.083.024 1.403.47.037.998.055 1.582.055.414 0 .71-.013.886-.04.176-.027.34-.072.49-.135.038-.103.078-.243.117-.42a8.51 8.51 0 0 0 .142-.668h.328c-.085.672-.128 1.229-.128 1.671a6.76 6.76 0 0 1-1.024.066l-2.927-.035c-.042 0-.47.012-1.284.035M50.124 7.023c.052-.319.083-.836.093-1.551h.328c.017.486.044.773.081.861.038.088.129.182.273.282.144.1.337.189.58.267.241.078.475.117.701.117.33 0 .635-.077.914-.232a1.45 1.45 0 0 0 .608-.61c.128-.252.192-.522.192-.808 0-.22-.032-.41-.096-.57a.88.88 0 0 0-.291-.386 1.206 1.206 0 0 0-.486-.207c-.12-.02-.362-.054-.725-.102-.362-.047-.671-.1-.927-.156-.34-.106-.59-.23-.75-.374a1.57 1.57 0 0 1-.39-.563c-.1-.232-.15-.483-.15-.752 0-.392.101-.762.302-1.109.201-.347.498-.617.893-.81.393-.192.82-.289 1.281-.289.278 0 .581.038.91.113.328.075.635.184.919.327-.046.21-.078.405-.098.586a10.7 10.7 0 0 0-.044.8h-.329c-.01-.512-.024-.79-.044-.837a1.262 1.262 0 0 0-.334-.325 2.095 2.095 0 0 0-1.055-.29c-.475 0-.854.148-1.137.441-.284.294-.425.674-.425 1.142 0 .283.05.502.152.656.101.155.283.279.545.372.18.063.473.122.882.179.408.055.776.115 1.103.178.307.093.534.204.681.332.147.128.268.297.363.505.094.208.142.452.142.731 0 .663-.27 1.24-.809 1.733-.54.493-1.237.74-2.093.74-.647 0-1.234-.13-1.76-.39M55.27 1.833h-.304c-.003-.795-.02-1.346-.05-1.652.357.013.916.03 1.677.05.618.013 1.03.02 1.236.02.222 0 .737-.01 1.544-.03a51.302 51.302 0 0 0 1.28-.04c-.04.373-.066.923-.079 1.652h-.314l-.039-.479a6.338 6.338 0 0 0-.054-.494.174.174 0 0 0-.042-.085.192.192 0 0 0-.08-.04 5.792 5.792 0 0 0-.49-.04 12.131 12.131 0 0 0-.667-.025h-.598c-.033.32-.05.75-.05 1.292v2.917c0 .453.005.893.015 1.322.01.316.033.504.071.564.038.06.098.104.182.132.083.028.319.046.708.053v.32a31.637 31.637 0 0 0-1.319-.04c-.127 0-.637.012-1.53.04v-.32c.388-.007.623-.025.708-.053.085-.028.141-.067.17-.117.043-.067.069-.228.079-.484 0-.07.008-.542.024-1.417V1.972c0-.14-.003-.293-.01-.459L57.31.67h-.73a7.99 7.99 0 0 0-1.006.05c-.078.01-.129.032-.151.065-.037.057-.07.238-.098.544zM61.005.5V.181c.533.023 1.028.035 1.486.035.464 0 .925-.012 1.382-.035v.32c-.383.006-.618.024-.702.052C63.087.58 63.03.62 63 .67c-.042.066-.068.228-.078.484-.004.066-.012.538-.024 1.416v1.846c0 .714.045 1.186.135 1.413.09.228.232.417.428.567.151.113.353.203.608.272.255.068.54.102.853.102.367 0 .691-.046.977-.137.283-.092.497-.203.639-.334.142-.132.248-.28.319-.442.07-.163.12-.386.151-.67.032-.285.047-.645.047-1.08V2.57c0-.452-.008-.894-.025-1.327-.006-.315-.027-.502-.066-.56a.332.332 0 0 0-.183-.13C66.697.525 66.463.507 66.08.5V.181c.539.023.932.035 1.18.035.225 0 .386-.003.973-.026l.245.31c-.387.007-.622.025-.705.053s-.14.067-.174.117c-.038.066-.063.228-.073.484-.003.066-.009.539-.02 1.416v1.671c0 .822-.055 1.395-.168 1.721a1.94 1.94 0 0 1-.62.863 2.384 2.384 0 0 1-.87.434 4.223 4.223 0 0 1-1.18.154c-.502 0-.94-.06-1.308-.181-.37-.122-.65-.281-.844-.48a1.676 1.676 0 0 1-.397-.605c-.092-.273-.137-.73-.137-1.372V2.57c0-.452-.005-.894-.015-1.327-.009-.315-.033-.502-.07-.56a.335.335 0 0 0-.182-.13c-.083-.028-.32-.046-.709-.053"/>
    <path d="M69.931 6.725c.36.063.74.095 1.138.095.412 0 .775-.037 1.09-.11.316-.073.586-.176.81-.31.223-.132.44-.328.649-.588.21-.26.37-.591.483-.995.113-.404.17-.822.17-1.254 0-.618-.11-1.15-.326-1.594A2.267 2.267 0 0 0 72.96.95c-.438-.236-1.039-.354-1.804-.354-.402 0-.81.032-1.226.095-.01.163-.018.452-.024.868l-.02.723v1.99l.015 1.546c.003.236.013.539.03.908m-1.515.544v-.24c.187-.11.344-.21.47-.299.02-.226.036-.54.05-.942.022-.685.034-1.16.034-1.425V2.329c0-.325-.008-.707-.025-1.146-.013-.276-.036-.447-.07-.513a.2.2 0 0 0-.102-.095C68.665.53 68.44.504 68.098.5l.134-.31c.477.017.765.016 1.13.016.282 0 .665-.006 1.15-.017.486-.012.862-.018 1.13-.018.801 0 1.445.104 1.932.312.487.207.9.556 1.24 1.045.34.489.51 1.085.51 1.79 0 .506-.08.98-.24 1.422a3.828 3.828 0 0 1-1.533 1.945 3.947 3.947 0 0 1-.987.437c-.345.098-.818.147-1.418.147-.2 0-.47-.006-.809-.017a41.616 41.616 0 0 0-.872-.018c-.199 0-.549.012-1.048.035M74.878.62V.316L76.059.08c.13.047.22.09.27.132.049.042.152.169.308.382.233.315.5.746.805 1.29.304.546.627 1.169.97 1.87.348-.542.703-1.13 1.066-1.764L80.523.18h.747v.135c-.18.203-.51.643-.99 1.32a27.01 27.01 0 0 0-1.083 1.711c-.278.462-.435.745-.471.85a.923.923 0 0 0-.054.297v.384c0 .452.005.893.015 1.323.01.316.033.504.07.564a.33.33 0 0 0 .182.132c.084.028.32.046.709.052v.32a32.533 32.533 0 0 0-1.383-.035c-.372 0-.864.012-1.475.035v-.32c.383-.006.617-.024.702-.052s.141-.067.17-.117c.043-.067.069-.228.079-.484.004-.07.012-.543.024-1.418v-.584a6.826 6.826 0 0 0-.2-.404 76.05 76.05 0 0 0-.5-.857l-.325-.538a18.036 18.036 0 0 0-.568-.908c-.239-.345-.437-.593-.593-.743A.743.743 0 0 0 75.31.67a1.393 1.393 0 0 0-.433-.05M90.634 6.39l-.19.465a5.052 5.052 0 0 1-1.124.426 5.104 5.104 0 0 1-1.196.133c-.506 0-.977-.065-1.412-.195a3.651 3.651 0 0 1-1.14-.557 3.45 3.45 0 0 1-.797-.812 3.527 3.527 0 0 1-.47-.976 3.914 3.914 0 0 1-.162-1.156c0-1.063.364-1.943 1.09-2.64C85.962.38 86.954.03 88.213.03c.298 0 .573.018.826.053s.563.101.927.199c.364.098.587.156.669.172a3.336 3.336 0 0 0-.162.54c-.052.282-.088.61-.108.983h-.309l-.005-.589c-.032-.326-.21-.57-.531-.729-.322-.16-.794-.24-1.415-.24-.464.008-.857.068-1.182.183a2.258 2.258 0 0 0-.855.544 2.863 2.863 0 0 0-.605.943c-.157.381-.237.86-.24 1.435 0 1.009.302 1.82.907 2.433.604.614 1.403.922 2.397.922a3.97 3.97 0 0 0 1.245-.189c.262-.085.521-.22.78-.405zM91.536 7.269v-.26c.2-.096.328-.173.384-.229a.243.243 0 0 0 .068-.115c.029-.093.048-.293.058-.598.016-.456.024-.727.024-.813V2.57c0-.452-.004-.894-.015-1.326-.01-.316-.033-.503-.07-.562a.335.335 0 0 0-.182-.13c-.083-.027-.32-.045-.708-.052V.182c.797.023 1.29.035 1.48.035.21 0 .678-.012 1.407-.035v.32c-.389.006-.625.024-.708.052a.323.323 0 0 0-.175.117c-.039.067-.063.228-.073.484-.004.066-.012.538-.025 1.416v3.352c0 .35.009.633.025.853.373.023.742.034 1.108.034.922 0 1.568-.06 1.937-.179.042-.1.08-.214.112-.345l.196-.828h.329a43.627 43.627 0 0 0-.211 1.747c-.134.027-.24.043-.319.05-.17.01-.43.015-.784.015l-2.902-.035c-.314 0-.633.012-.956.035M96.357.5V.181a34.43 34.43 0 0 0 1.485.035c.464 0 .926-.012 1.383-.035v.32c-.384.006-.619.024-.703.052-.084.028-.141.067-.17.117-.043.066-.07.228-.079.484-.004.066-.012.538-.024 1.416v1.846c0 .714.045 1.186.135 1.413.09.228.232.417.429.567.15.113.353.203.608.272.254.068.539.102.852.102.367 0 .692-.046.976-.137.284-.092.498-.203.64-.334.142-.132.248-.28.319-.442.07-.163.121-.386.152-.67.03-.285.046-.645.046-1.08V2.57c0-.452-.008-.894-.025-1.327-.006-.315-.028-.502-.065-.56a.336.336 0 0 0-.183-.13c-.085-.028-.319-.046-.702-.053V.181c.538.023.93.035 1.178.035.225 0 .463-.005 1.05-.029v.317c-.386.007-.453.02-.536.049s-.14.067-.173.117c-.04.066-.064.228-.073.484-.003.066-.01.539-.02 1.416v1.671c0 .822-.056 1.395-.17 1.721-.112.326-.319.614-.62.863a2.387 2.387 0 0 1-.869.434 4.22 4.22 0 0 1-1.18.154c-.503 0-.94-.06-1.308-.181-.37-.122-.65-.281-.843-.48a1.676 1.676 0 0 1-.398-.605c-.09-.273-.137-.73-.137-1.372V2.57c0-.452-.004-.894-.014-1.327-.01-.315-.034-.502-.072-.56a.335.335 0 0 0-.18-.13c-.084-.028-.32-.046-.71-.053M105.407 6.755c.246.06.505.09.776.09.433 0 .782-.068 1.047-.202.265-.135.469-.338.61-.61.143-.273.215-.585.215-.938 0-.349-.067-.642-.201-.88a1.224 1.224 0 0 0-.602-.528c-.267-.114-.707-.172-1.32-.172-.14 0-.32.007-.54.02v1.89c0 .182.006.626.015 1.33zm-.015-3.629c.187.01.351.015.492.015.406 0 .72-.032.94-.095a1.37 1.37 0 0 0 .514-.25 1.18 1.18 0 0 0 .302-.419c.08-.176.12-.382.12-.619 0-.415-.13-.716-.39-.9-.26-.185-.641-.278-1.142-.278-.279 0-.542.027-.791.08-.03.276-.045.702-.045 1.28zm-1.396 4.143v-.235c.202-.103.315-.167.338-.192a.275.275 0 0 0 .054-.132c.02-.1.037-.311.052-.635s.021-.57.021-.74V2.33c0-.326-.007-.708-.024-1.147-.013-.276-.037-.447-.07-.513a.204.204 0 0 0-.103-.095c-.108-.046-.264-.067-.605-.07V.187c.107.006.173.003.337.003l1.02.025 1.806-.045c.478 0 .846.05 1.104.15.26.1.46.262.606.487.146.224.22.474.22.75 0 .22-.044.427-.131.62-.087.193-.203.36-.349.501a1.92 1.92 0 0 1-.486.345 3.658 3.658 0 0 1-.7.242c.383.036.693.09.928.162.236.071.433.177.592.319.159.141.278.313.36.516a1.8 1.8 0 0 1 .123.678c0 .492-.146.924-.44 1.299-.292.373-.67.65-1.13.83-.344.133-.75.2-1.222.2l-1.423-.04c-.154 0-.446.012-.878.04zM111.02 1.292h.076c.145 0 .248-.026.31-.08a.279.279 0 0 0 .093-.223c0-.098-.026-.172-.079-.224-.052-.052-.138-.077-.259-.077h-.056c-.033 0-.053.003-.06.01a.104.104 0 0 0-.018.03.31.31 0 0 0-.007.087zm-.386.705v-.053a.563.563 0 0 0 .126-.01.06.06 0 0 0 .029-.03.327.327 0 0 0 .01-.108V.823a.347.347 0 0 0-.01-.11.055.055 0 0 0-.039-.03.714.714 0 0 0-.116-.007V.62h.576c.137 0 .24.015.313.044.073.029.124.07.155.124a.336.336 0 0 1 .047.174.33.33 0 0 1-.092.232.496.496 0 0 1-.288.133.298.298 0 0 1 .097.042c.033.025.063.06.091.102.028.043.063.112.105.208.041.096.072.158.092.187.02.029.04.049.062.06a.23.23 0 0 0 .076.017v.053h-.15a.357.357 0 0 1-.137-.02.162.162 0 0 1-.074-.069 2.236 2.236 0 0 1-.137-.301.717.717 0 0 0-.082-.166.193.193 0 0 0-.073-.061.32.32 0 0 0-.119-.016h-.076v.432c0 .06.004.096.01.11a.06.06 0 0 0 .04.031.56.56 0 0 0 .098.007v.053zm-.5-.642c0 .189.047.374.14.554.094.18.228.322.402.423.175.101.356.152.546.152.164 0 .32-.037.468-.11a1.117 1.117 0 0 0 .527-.564 1.16 1.16 0 0 0-.124-1.129 1.186 1.186 0 0 0-.233-.24 1.046 1.046 0 0 0-.638-.215 1.076 1.076 0 0 0-.947.574c-.094.18-.14.366-.14.555zm-.151 0c0-.178.034-.346.104-.503a1.24 1.24 0 0 1 .253-.386c.1-.099.209-.178.328-.238a1.208 1.208 0 0 1 1.28.107 1.285 1.285 0 0 1 .447.618 1.282 1.282 0 0 1-.04.908c-.07.154-.156.282-.259.386a1.212 1.212 0 0 1-1.496.2 1.156 1.156 0 0 1-.457-.472 1.307 1.307 0 0 1-.16-.62zM11.631 12.166c-.258.11-.433.314-.524.611-.093.297-.139.772-.139 1.426V25.3a49.33 49.33 0 0 1-.08 3.03c-.055.857-.174 1.595-.357 2.214A5.386 5.386 0 0 1 9.3 32.728c-.587.64-1.33 1.146-2.225 1.515-.896.369-1.902.554-3.019.554-1.084 0-1.945-.166-2.588-.497-.842-.425-1.262-1.048-1.262-1.87 0-.535.187-.966.562-1.293.375-.326.872-.49 1.488-.49.6 0 1.075.15 1.425.452.35.301.525.727.525 1.28 0 .39-.113.738-.337 1.043-.226.305-.55.53-.976.674.167.12.475.179.926.179.625 0 1.163-.17 1.612-.51.45-.34.775-.793.975-1.362.15-.45.26-.924.331-1.425.07-.5.115-1.094.132-1.782.016-.687.025-1.714.025-3.08V14.203c0-.654-.048-1.129-.144-1.426-.096-.297-.275-.5-.538-.61-.262-.111-.677-.18-1.244-.205v-.521c.85.05 2.15.076 3.9.076 1.725 0 3.064-.025 4.013-.076v.521c-.574.026-.992.094-1.25.204M20.332 12.707c-.713.776-1.263 1.858-1.65 3.246-.388 1.387-.581 2.976-.581 4.767 0 1.807.216 3.398.65 4.772.433 1.375 1.02 2.436 1.762 3.183.742.746 1.567 1.12 2.476 1.12.941 0 1.768-.388 2.481-1.165.712-.777 1.262-1.858 1.65-3.246.387-1.387.581-2.976.581-4.767 0-1.798-.217-3.387-.65-4.766-.433-1.379-1.023-2.441-1.769-3.189-.746-.746-1.569-1.12-2.468-1.12-.942 0-1.77.389-2.482 1.165m7.326-.515c1.362.747 2.418 1.83 3.168 3.251.75 1.422 1.125 3.113 1.125 5.073 0 1.918-.386 3.615-1.156 5.09-.771 1.477-1.844 2.623-3.219 3.437-1.375.815-2.937 1.222-4.688 1.222-1.808 0-3.394-.373-4.756-1.12-1.362-.746-2.417-1.83-3.162-3.252-.747-1.42-1.12-3.111-1.12-5.071 0-1.918.384-3.615 1.15-5.092.767-1.477 1.838-2.622 3.213-3.436 1.375-.815 2.942-1.223 4.7-1.223 1.8 0 3.382.374 4.745 1.121M48.24 12.402c-.262.216-.442.547-.537.992-.096.446-.144 1.114-.144 2.005v6.911c0 2.487-.35 4.328-1.05 5.524-.467.773-1.134 1.37-2 1.795s-1.934.636-3.2.636c-1.967 0-3.505-.437-4.613-1.31a4.583 4.583 0 0 1-1.244-1.54c-.287-.586-.483-1.271-.588-2.056-.104-.785-.156-1.776-.156-2.972v-8.184c0-.654-.048-1.129-.143-1.426-.096-.297-.276-.5-.538-.61-.262-.11-.677-.179-1.243-.205v-.521c.875.05 2.203.076 3.987.076 1.766 0 3.125-.025 4.075-.076v.521c-.617.026-1.064.094-1.344.205a.966.966 0 0 0-.575.61c-.104.297-.156.772-.156 1.426v9.826c0 1.222.108 2.216.325 2.984.217.768.581 1.35 1.094 1.744.513.395 1.219.592 2.119.592 1.7 0 2.902-.585 3.606-1.756.704-1.171 1.057-2.835 1.057-4.99v-6.886c0-1.009-.061-1.758-.182-2.246-.12-.488-.352-.842-.693-1.063-.343-.22-.88-.369-1.613-.446v-.521c.642.05 1.563.076 2.762.076.95 0 1.692-.025 2.226-.076v.521c-.56.077-.97.223-1.232.44M60.14 20.058a2.858 2.858 0 0 0 1.113-1.502c.204-.628.306-1.383.306-2.266 0-1.425-.248-2.503-.744-3.233-.495-.73-1.306-1.095-2.43-1.095-.46 0-.799.062-1.02.185-.22.123-.37.34-.45.65-.079.31-.118.778-.118 1.406v6.414h1.1c.958 0 1.706-.186 2.244-.56m6.525 9.852c-.53.237-1.165.356-1.906.356-.984 0-1.763-.212-2.338-.636-.575-.425-.95-1.154-1.125-2.19l-.463-2.596c-.15-.84-.306-1.516-.469-2.03-.162-.513-.396-.92-.7-1.222-.304-.3-.706-.452-1.206-.452h-1.662v5.995c0 .653.045 1.13.137 1.426.092.297.267.5.525.61.258.112.675.18 1.25.205v.522c-.908-.052-2.195-.077-3.863-.077-1.825 0-3.17.025-4.037.077v-.522c.566-.026.98-.093 1.238-.204.258-.11.435-.314.531-.61.095-.298.143-.774.143-1.427v-12.93c0-.655-.048-1.13-.143-1.427-.096-.297-.273-.5-.531-.61-.259-.11-.672-.179-1.238-.205v-.521c.866.051 2.162.076 3.887.076.684 0 1.443-.008 2.275-.025.834-.017 1.413-.026 1.738-.026 2.35 0 4.12.393 5.313 1.178 1.192.784 1.788 1.903 1.788 3.353 0 .773-.18 1.507-.538 2.202-.358.696-.967 1.3-1.825 1.813-.858.515-1.992.856-3.4 1.026h.025c1.034.093 1.882.271 2.544.534.662.264 1.181.63 1.556 1.101.376.47.638 1.071.787 1.801l.589 2.686c.14.704.301 1.192.48 1.464.18.27.431.407.756.407.2-.008.375-.06.525-.153.15-.093.317-.242.5-.445l.35.318c-.466.534-.964.92-1.493 1.158M84.153 12.402c-.262.216-.441.547-.537.992-.096.446-.143 1.114-.143 2.005v14.549a9.782 9.782 0 0 0-.626-.014c-.3 0-.529.004-.687.014L71.047 15.615V25.62c0 1.026.054 1.78.163 2.26.108.478.331.828.668 1.049.338.22.89.37 1.657.445v.522c-.659-.05-1.58-.076-2.763-.076-.942 0-1.684.025-2.225.076v-.522c.558-.076.969-.222 1.23-.439.264-.216.442-.547.539-.992.096-.446.143-1.114.143-2.005V14.203c0-.654-.047-1.129-.143-1.426-.097-.297-.273-.5-.531-.61-.26-.11-.67-.179-1.238-.205v-.521c.541.05 1.283.076 2.225.076.858 0 1.592-.025 2.2-.076l9.913 12.435v-8.159c0-1.026-.054-1.78-.163-2.259-.108-.48-.331-.83-.668-1.05-.338-.22-.89-.369-1.656-.446v-.521c.657.05 1.579.076 2.762.076.95 0 1.692-.025 2.225-.076v.521c-.559.077-.968.223-1.232.44M91.905 15.348l-2.65 7.039h5.188zm9.7 13.613c.283.259.567.397.85.414v.521a80.39 80.39 0 0 0-3.887-.076c-1.75 0-3.046.025-3.888.076v-.521c.641-.026 1.102-.107 1.381-.243.279-.135.419-.373.419-.712 0-.263-.104-.675-.312-1.235l-1.538-4.276h-5.575l-.675 1.794c-.468 1.222-.7 2.19-.7 2.902 0 .645.187 1.095.563 1.35.374.254.94.394 1.699.42v.521a71.496 71.496 0 0 0-3.175-.076c-.783 0-1.433.025-1.95.076v-.521c.85-.145 1.583-1.057 2.2-2.737l5.837-15.248a9.7 9.7 0 0 0 .888.038c.334 0 .629-.013.888-.038l6.213 16.317c.225.577.478.995.762 1.254zM109.35 12.166a.964.964 0 0 0-.576.611c-.104.297-.156.772-.156 1.426V27.44c0 .56.04.965.119 1.215.08.25.229.42.45.51.221.088.569.133 1.043.133h1.25c.776 0 1.486-.242 2.132-.726.645-.483 1.187-1.164 1.625-2.042.438-.878.74-1.894.906-3.049h.587c-.05.594-.074 1.358-.074 2.291 0 1.672.058 3.047.175 4.124-1.159-.05-3.113-.076-5.863-.076-3.717 0-6.496.025-8.338.076v-.521c.566-.026.98-.094 1.238-.204.258-.11.435-.314.531-.611.095-.297.144-.773.144-1.426V14.203c0-.654-.049-1.129-.144-1.426-.096-.297-.273-.5-.531-.61-.259-.111-.672-.18-1.238-.205v-.521c.859.05 2.205.076 4.037.076 1.734 0 3.076-.025 4.026-.076v.521c-.617.026-1.065.094-1.344.204"/>
  </g>
</svg>